<mxfile host="app.diagrams.net" modified="2024-03-24T11:17:03.325Z" agent="Mozilla/5.0 (Macintosh; Intel Mac OS X 10_15_7) AppleWebKit/537.36 (KHTML, like Gecko) Chrome/123.0.0.0 Safari/537.36" etag="4nqvtIxOEIcM04E19bBz" version="24.1.0" type="github" pages="16">
  <diagram name="1" id="IRGDrFxaSJJ9DpbLaFX9">
    <mxGraphModel dx="918" dy="526" grid="1" gridSize="10" guides="1" tooltips="1" connect="1" arrows="1" fold="1" page="1" pageScale="1" pageWidth="850" pageHeight="1100" math="0" shadow="0">
      <root>
        <mxCell id="0" />
        <mxCell id="1" parent="0" />
        <mxCell id="JkLZjsbQaTNn4Nik8gJp-1" value="&lt;span style=&quot;font-size: 16px;&quot;&gt;Início&lt;/span&gt;" style="text;html=1;align=center;verticalAlign=middle;resizable=0;points=[];autosize=1;strokeColor=none;fillColor=none;" parent="1" vertex="1">
          <mxGeometry x="395" y="80" width="60" height="30" as="geometry" />
        </mxCell>
        <mxCell id="JkLZjsbQaTNn4Nik8gJp-2" value="" style="endArrow=classic;html=1;rounded=0;" parent="1" source="JkLZjsbQaTNn4Nik8gJp-1" edge="1">
          <mxGeometry width="50" height="50" relative="1" as="geometry">
            <mxPoint x="455" y="182" as="sourcePoint" />
            <mxPoint x="425" y="162" as="targetPoint" />
          </mxGeometry>
        </mxCell>
        <mxCell id="JkLZjsbQaTNn4Nik8gJp-3" value="" style="group" parent="1" vertex="1" connectable="0">
          <mxGeometry x="385" y="182" width="80" height="20" as="geometry" />
        </mxCell>
        <mxCell id="JkLZjsbQaTNn4Nik8gJp-4" value="" style="endArrow=none;html=1;rounded=0;" parent="JkLZjsbQaTNn4Nik8gJp-3" edge="1">
          <mxGeometry width="50" height="50" relative="1" as="geometry">
            <mxPoint as="sourcePoint" />
            <mxPoint x="80" as="targetPoint" />
          </mxGeometry>
        </mxCell>
        <mxCell id="JkLZjsbQaTNn4Nik8gJp-5" value="" style="endArrow=none;html=1;rounded=0;" parent="JkLZjsbQaTNn4Nik8gJp-3" edge="1">
          <mxGeometry width="50" height="50" relative="1" as="geometry">
            <mxPoint x="10" y="10" as="sourcePoint" />
            <mxPoint x="70" y="10" as="targetPoint" />
          </mxGeometry>
        </mxCell>
        <mxCell id="JkLZjsbQaTNn4Nik8gJp-6" value="" style="endArrow=none;html=1;rounded=0;" parent="JkLZjsbQaTNn4Nik8gJp-3" edge="1">
          <mxGeometry width="50" height="50" relative="1" as="geometry">
            <mxPoint x="20" y="20" as="sourcePoint" />
            <mxPoint x="60" y="20" as="targetPoint" />
          </mxGeometry>
        </mxCell>
      </root>
    </mxGraphModel>
  </diagram>
  <diagram name="2" id="pzFS-qotr5eujpHbOU1O">
    <mxGraphModel dx="918" dy="526" grid="1" gridSize="10" guides="1" tooltips="1" connect="1" arrows="1" fold="1" page="1" pageScale="1" pageWidth="850" pageHeight="1100" math="0" shadow="0">
      <root>
        <mxCell id="sdfJNx6z0nwanWswvNui-0" />
        <mxCell id="sdfJNx6z0nwanWswvNui-1" parent="sdfJNx6z0nwanWswvNui-0" />
        <mxCell id="sdfJNx6z0nwanWswvNui-2" value="&lt;span style=&quot;font-size: 16px;&quot;&gt;Início&lt;/span&gt;" style="text;html=1;align=center;verticalAlign=middle;resizable=0;points=[];autosize=1;strokeColor=none;fillColor=none;" parent="sdfJNx6z0nwanWswvNui-1" vertex="1">
          <mxGeometry x="343" y="80" width="60" height="30" as="geometry" />
        </mxCell>
        <mxCell id="sdfJNx6z0nwanWswvNui-3" value="" style="endArrow=classic;html=1;rounded=0;" parent="sdfJNx6z0nwanWswvNui-1" source="sdfJNx6z0nwanWswvNui-2" edge="1">
          <mxGeometry width="50" height="50" relative="1" as="geometry">
            <mxPoint x="403" y="182" as="sourcePoint" />
            <mxPoint x="373" y="162" as="targetPoint" />
          </mxGeometry>
        </mxCell>
        <mxCell id="sdfJNx6z0nwanWswvNui-4" value="" style="group" parent="sdfJNx6z0nwanWswvNui-1" vertex="1" connectable="0">
          <mxGeometry x="333" y="182" width="80" height="20" as="geometry" />
        </mxCell>
        <mxCell id="sdfJNx6z0nwanWswvNui-5" value="" style="endArrow=none;html=1;rounded=0;" parent="sdfJNx6z0nwanWswvNui-4" edge="1">
          <mxGeometry width="50" height="50" relative="1" as="geometry">
            <mxPoint as="sourcePoint" />
            <mxPoint x="80" as="targetPoint" />
          </mxGeometry>
        </mxCell>
        <mxCell id="sdfJNx6z0nwanWswvNui-6" value="" style="endArrow=none;html=1;rounded=0;" parent="sdfJNx6z0nwanWswvNui-4" edge="1">
          <mxGeometry width="50" height="50" relative="1" as="geometry">
            <mxPoint x="10" y="10" as="sourcePoint" />
            <mxPoint x="70" y="10" as="targetPoint" />
          </mxGeometry>
        </mxCell>
        <mxCell id="sdfJNx6z0nwanWswvNui-7" value="" style="endArrow=none;html=1;rounded=0;" parent="sdfJNx6z0nwanWswvNui-4" edge="1">
          <mxGeometry width="50" height="50" relative="1" as="geometry">
            <mxPoint x="20" y="20" as="sourcePoint" />
            <mxPoint x="60" y="20" as="targetPoint" />
          </mxGeometry>
        </mxCell>
        <mxCell id="CNAbx0TC6hHYCE3XUuOv-0" value="&lt;span style=&quot;font-size: 16px;&quot;&gt;Fim&lt;/span&gt;" style="text;html=1;align=center;verticalAlign=middle;resizable=0;points=[];autosize=1;strokeColor=none;fillColor=none;" parent="sdfJNx6z0nwanWswvNui-1" vertex="1">
          <mxGeometry x="453" y="80" width="50" height="30" as="geometry" />
        </mxCell>
        <mxCell id="CNAbx0TC6hHYCE3XUuOv-1" value="" style="endArrow=classic;html=1;rounded=0;" parent="sdfJNx6z0nwanWswvNui-1" source="CNAbx0TC6hHYCE3XUuOv-0" edge="1">
          <mxGeometry width="50" height="50" relative="1" as="geometry">
            <mxPoint x="508" y="182" as="sourcePoint" />
            <mxPoint x="478" y="162" as="targetPoint" />
          </mxGeometry>
        </mxCell>
        <mxCell id="CNAbx0TC6hHYCE3XUuOv-2" value="" style="group" parent="sdfJNx6z0nwanWswvNui-1" vertex="1" connectable="0">
          <mxGeometry x="438" y="182" width="80" height="20" as="geometry" />
        </mxCell>
        <mxCell id="CNAbx0TC6hHYCE3XUuOv-3" value="" style="endArrow=none;html=1;rounded=0;" parent="CNAbx0TC6hHYCE3XUuOv-2" edge="1">
          <mxGeometry width="50" height="50" relative="1" as="geometry">
            <mxPoint as="sourcePoint" />
            <mxPoint x="80" as="targetPoint" />
          </mxGeometry>
        </mxCell>
        <mxCell id="CNAbx0TC6hHYCE3XUuOv-4" value="" style="endArrow=none;html=1;rounded=0;" parent="CNAbx0TC6hHYCE3XUuOv-2" edge="1">
          <mxGeometry width="50" height="50" relative="1" as="geometry">
            <mxPoint x="10" y="10" as="sourcePoint" />
            <mxPoint x="70" y="10" as="targetPoint" />
          </mxGeometry>
        </mxCell>
        <mxCell id="CNAbx0TC6hHYCE3XUuOv-5" value="" style="endArrow=none;html=1;rounded=0;" parent="CNAbx0TC6hHYCE3XUuOv-2" edge="1">
          <mxGeometry width="50" height="50" relative="1" as="geometry">
            <mxPoint x="20" y="20" as="sourcePoint" />
            <mxPoint x="60" y="20" as="targetPoint" />
          </mxGeometry>
        </mxCell>
      </root>
    </mxGraphModel>
  </diagram>
  <diagram name="3" id="us0bCiPGqxFC0sbXndlg">
    <mxGraphModel dx="918" dy="526" grid="1" gridSize="10" guides="1" tooltips="1" connect="1" arrows="1" fold="1" page="1" pageScale="1" pageWidth="850" pageHeight="1100" math="0" shadow="0">
      <root>
        <mxCell id="jwPgggRfoAZXvAmxB1SO-0" />
        <mxCell id="jwPgggRfoAZXvAmxB1SO-1" parent="jwPgggRfoAZXvAmxB1SO-0" />
        <mxCell id="jwPgggRfoAZXvAmxB1SO-2" value="&lt;span style=&quot;font-size: 16px;&quot;&gt;Início&lt;/span&gt;" style="text;html=1;align=center;verticalAlign=middle;resizable=0;points=[];autosize=1;strokeColor=none;fillColor=none;" parent="jwPgggRfoAZXvAmxB1SO-1" vertex="1">
          <mxGeometry x="282" y="80" width="60" height="30" as="geometry" />
        </mxCell>
        <mxCell id="jwPgggRfoAZXvAmxB1SO-3" value="" style="endArrow=classic;html=1;rounded=0;" parent="jwPgggRfoAZXvAmxB1SO-1" source="jwPgggRfoAZXvAmxB1SO-2" edge="1">
          <mxGeometry width="50" height="50" relative="1" as="geometry">
            <mxPoint x="342" y="182" as="sourcePoint" />
            <mxPoint x="312" y="162" as="targetPoint" />
          </mxGeometry>
        </mxCell>
        <mxCell id="jwPgggRfoAZXvAmxB1SO-4" value="" style="group" parent="jwPgggRfoAZXvAmxB1SO-1" vertex="1" connectable="0">
          <mxGeometry x="272" y="182" width="80" height="20" as="geometry" />
        </mxCell>
        <mxCell id="jwPgggRfoAZXvAmxB1SO-5" value="" style="endArrow=none;html=1;rounded=0;" parent="jwPgggRfoAZXvAmxB1SO-4" edge="1">
          <mxGeometry width="50" height="50" relative="1" as="geometry">
            <mxPoint as="sourcePoint" />
            <mxPoint x="80" as="targetPoint" />
          </mxGeometry>
        </mxCell>
        <mxCell id="jwPgggRfoAZXvAmxB1SO-6" value="" style="endArrow=none;html=1;rounded=0;" parent="jwPgggRfoAZXvAmxB1SO-4" edge="1">
          <mxGeometry width="50" height="50" relative="1" as="geometry">
            <mxPoint x="10" y="10" as="sourcePoint" />
            <mxPoint x="70" y="10" as="targetPoint" />
          </mxGeometry>
        </mxCell>
        <mxCell id="jwPgggRfoAZXvAmxB1SO-7" value="" style="endArrow=none;html=1;rounded=0;" parent="jwPgggRfoAZXvAmxB1SO-4" edge="1">
          <mxGeometry width="50" height="50" relative="1" as="geometry">
            <mxPoint x="20" y="20" as="sourcePoint" />
            <mxPoint x="60" y="20" as="targetPoint" />
          </mxGeometry>
        </mxCell>
        <mxCell id="jwPgggRfoAZXvAmxB1SO-8" value="&lt;span style=&quot;font-size: 16px;&quot;&gt;Fim&lt;/span&gt;" style="text;html=1;align=center;verticalAlign=middle;resizable=0;points=[];autosize=1;strokeColor=none;fillColor=none;" parent="jwPgggRfoAZXvAmxB1SO-1" vertex="1">
          <mxGeometry x="392" y="80" width="50" height="30" as="geometry" />
        </mxCell>
        <mxCell id="jwPgggRfoAZXvAmxB1SO-9" value="" style="endArrow=classic;html=1;rounded=0;" parent="jwPgggRfoAZXvAmxB1SO-1" source="jwPgggRfoAZXvAmxB1SO-8" edge="1">
          <mxGeometry width="50" height="50" relative="1" as="geometry">
            <mxPoint x="447" y="182" as="sourcePoint" />
            <mxPoint x="417" y="162" as="targetPoint" />
          </mxGeometry>
        </mxCell>
        <mxCell id="jwPgggRfoAZXvAmxB1SO-10" value="" style="group" parent="jwPgggRfoAZXvAmxB1SO-1" vertex="1" connectable="0">
          <mxGeometry x="377" y="182" width="80" height="20" as="geometry" />
        </mxCell>
        <mxCell id="jwPgggRfoAZXvAmxB1SO-11" value="" style="endArrow=none;html=1;rounded=0;" parent="jwPgggRfoAZXvAmxB1SO-10" edge="1">
          <mxGeometry width="50" height="50" relative="1" as="geometry">
            <mxPoint as="sourcePoint" />
            <mxPoint x="80" as="targetPoint" />
          </mxGeometry>
        </mxCell>
        <mxCell id="jwPgggRfoAZXvAmxB1SO-12" value="" style="endArrow=none;html=1;rounded=0;" parent="jwPgggRfoAZXvAmxB1SO-10" edge="1">
          <mxGeometry width="50" height="50" relative="1" as="geometry">
            <mxPoint x="10" y="10" as="sourcePoint" />
            <mxPoint x="70" y="10" as="targetPoint" />
          </mxGeometry>
        </mxCell>
        <mxCell id="jwPgggRfoAZXvAmxB1SO-13" value="" style="endArrow=none;html=1;rounded=0;" parent="jwPgggRfoAZXvAmxB1SO-10" edge="1">
          <mxGeometry width="50" height="50" relative="1" as="geometry">
            <mxPoint x="20" y="20" as="sourcePoint" />
            <mxPoint x="60" y="20" as="targetPoint" />
          </mxGeometry>
        </mxCell>
        <mxCell id="Mg0lNP4AD0-RgFI-3k_E-0" value="" style="group" parent="jwPgggRfoAZXvAmxB1SO-1" vertex="1" connectable="0">
          <mxGeometry x="499" y="80" width="80" height="80" as="geometry" />
        </mxCell>
        <mxCell id="Mg0lNP4AD0-RgFI-3k_E-1" value="" style="whiteSpace=wrap;html=1;aspect=fixed;" parent="Mg0lNP4AD0-RgFI-3k_E-0" vertex="1">
          <mxGeometry width="80" height="80" as="geometry" />
        </mxCell>
        <mxCell id="Mg0lNP4AD0-RgFI-3k_E-2" value="&lt;font style=&quot;font-size: 16px;&quot;&gt;55&lt;/font&gt;" style="text;html=1;align=center;verticalAlign=middle;resizable=0;points=[];autosize=1;strokeColor=none;fillColor=none;" parent="Mg0lNP4AD0-RgFI-3k_E-0" vertex="1">
          <mxGeometry x="20" y="25" width="40" height="30" as="geometry" />
        </mxCell>
        <mxCell id="Mg0lNP4AD0-RgFI-3k_E-3" value="" style="endArrow=classic;html=1;rounded=0;exitX=0.5;exitY=1;exitDx=0;exitDy=0;" parent="jwPgggRfoAZXvAmxB1SO-1" source="Mg0lNP4AD0-RgFI-3k_E-1" edge="1">
          <mxGeometry width="50" height="50" relative="1" as="geometry">
            <mxPoint x="539" y="192" as="sourcePoint" />
            <mxPoint x="539" y="202" as="targetPoint" />
          </mxGeometry>
        </mxCell>
        <mxCell id="Mg0lNP4AD0-RgFI-3k_E-4" value="" style="group" parent="jwPgggRfoAZXvAmxB1SO-1" vertex="1" connectable="0">
          <mxGeometry x="499" y="212" width="80" height="20" as="geometry" />
        </mxCell>
        <mxCell id="Mg0lNP4AD0-RgFI-3k_E-5" value="" style="endArrow=none;html=1;rounded=0;" parent="Mg0lNP4AD0-RgFI-3k_E-4" edge="1">
          <mxGeometry width="50" height="50" relative="1" as="geometry">
            <mxPoint as="sourcePoint" />
            <mxPoint x="80" as="targetPoint" />
          </mxGeometry>
        </mxCell>
        <mxCell id="Mg0lNP4AD0-RgFI-3k_E-6" value="" style="endArrow=none;html=1;rounded=0;" parent="Mg0lNP4AD0-RgFI-3k_E-4" edge="1">
          <mxGeometry width="50" height="50" relative="1" as="geometry">
            <mxPoint x="10" y="10" as="sourcePoint" />
            <mxPoint x="70" y="10" as="targetPoint" />
          </mxGeometry>
        </mxCell>
        <mxCell id="Mg0lNP4AD0-RgFI-3k_E-7" value="" style="endArrow=none;html=1;rounded=0;" parent="Mg0lNP4AD0-RgFI-3k_E-4" edge="1">
          <mxGeometry width="50" height="50" relative="1" as="geometry">
            <mxPoint x="20" y="20" as="sourcePoint" />
            <mxPoint x="60" y="20" as="targetPoint" />
          </mxGeometry>
        </mxCell>
      </root>
    </mxGraphModel>
  </diagram>
  <diagram name="4" id="9arPxlgRP-TrwDYTbPdk">
    <mxGraphModel dx="918" dy="526" grid="1" gridSize="10" guides="1" tooltips="1" connect="1" arrows="1" fold="1" page="1" pageScale="1" pageWidth="850" pageHeight="1100" math="0" shadow="0">
      <root>
        <mxCell id="ZfEygzuSnq6AT3fLOsng-0" />
        <mxCell id="ZfEygzuSnq6AT3fLOsng-1" parent="ZfEygzuSnq6AT3fLOsng-0" />
        <mxCell id="ZfEygzuSnq6AT3fLOsng-2" value="&lt;span style=&quot;font-size: 16px;&quot;&gt;Início&lt;/span&gt;" style="text;html=1;align=center;verticalAlign=middle;resizable=0;points=[];autosize=1;strokeColor=none;fillColor=none;" parent="ZfEygzuSnq6AT3fLOsng-1" vertex="1">
          <mxGeometry x="344" y="80" width="60" height="30" as="geometry" />
        </mxCell>
        <mxCell id="ZfEygzuSnq6AT3fLOsng-3" value="" style="endArrow=classic;html=1;rounded=0;" parent="ZfEygzuSnq6AT3fLOsng-1" source="ZfEygzuSnq6AT3fLOsng-2" target="ZfEygzuSnq6AT3fLOsng-15" edge="1">
          <mxGeometry width="50" height="50" relative="1" as="geometry">
            <mxPoint x="404" y="182" as="sourcePoint" />
            <mxPoint x="374" y="162" as="targetPoint" />
          </mxGeometry>
        </mxCell>
        <mxCell id="ZfEygzuSnq6AT3fLOsng-8" value="&lt;span style=&quot;font-size: 16px;&quot;&gt;Fim&lt;/span&gt;" style="text;html=1;align=center;verticalAlign=middle;resizable=0;points=[];autosize=1;strokeColor=none;fillColor=none;" parent="ZfEygzuSnq6AT3fLOsng-1" vertex="1">
          <mxGeometry x="454" y="80" width="50" height="30" as="geometry" />
        </mxCell>
        <mxCell id="ZfEygzuSnq6AT3fLOsng-9" value="" style="endArrow=classic;html=1;rounded=0;" parent="ZfEygzuSnq6AT3fLOsng-1" source="ZfEygzuSnq6AT3fLOsng-8" edge="1">
          <mxGeometry width="50" height="50" relative="1" as="geometry">
            <mxPoint x="509" y="182" as="sourcePoint" />
            <mxPoint x="479" y="162" as="targetPoint" />
          </mxGeometry>
        </mxCell>
        <mxCell id="ZfEygzuSnq6AT3fLOsng-10" value="" style="group" parent="ZfEygzuSnq6AT3fLOsng-1" vertex="1" connectable="0">
          <mxGeometry x="439" y="182" width="80" height="20" as="geometry" />
        </mxCell>
        <mxCell id="ZfEygzuSnq6AT3fLOsng-11" value="" style="endArrow=none;html=1;rounded=0;" parent="ZfEygzuSnq6AT3fLOsng-10" edge="1">
          <mxGeometry width="50" height="50" relative="1" as="geometry">
            <mxPoint as="sourcePoint" />
            <mxPoint x="80" as="targetPoint" />
          </mxGeometry>
        </mxCell>
        <mxCell id="ZfEygzuSnq6AT3fLOsng-12" value="" style="endArrow=none;html=1;rounded=0;" parent="ZfEygzuSnq6AT3fLOsng-10" edge="1">
          <mxGeometry width="50" height="50" relative="1" as="geometry">
            <mxPoint x="10" y="10" as="sourcePoint" />
            <mxPoint x="70" y="10" as="targetPoint" />
          </mxGeometry>
        </mxCell>
        <mxCell id="ZfEygzuSnq6AT3fLOsng-13" value="" style="endArrow=none;html=1;rounded=0;" parent="ZfEygzuSnq6AT3fLOsng-10" edge="1">
          <mxGeometry width="50" height="50" relative="1" as="geometry">
            <mxPoint x="20" y="20" as="sourcePoint" />
            <mxPoint x="60" y="20" as="targetPoint" />
          </mxGeometry>
        </mxCell>
        <mxCell id="ZfEygzuSnq6AT3fLOsng-14" value="" style="group" parent="ZfEygzuSnq6AT3fLOsng-1" vertex="1" connectable="0">
          <mxGeometry x="332" y="220" width="80" height="80" as="geometry" />
        </mxCell>
        <mxCell id="ZfEygzuSnq6AT3fLOsng-15" value="" style="whiteSpace=wrap;html=1;aspect=fixed;" parent="ZfEygzuSnq6AT3fLOsng-14" vertex="1">
          <mxGeometry width="80" height="80" as="geometry" />
        </mxCell>
        <mxCell id="ZfEygzuSnq6AT3fLOsng-16" value="&lt;font style=&quot;font-size: 16px;&quot;&gt;55&lt;/font&gt;" style="text;html=1;align=center;verticalAlign=middle;resizable=0;points=[];autosize=1;strokeColor=none;fillColor=none;" parent="ZfEygzuSnq6AT3fLOsng-14" vertex="1">
          <mxGeometry x="20" y="25" width="40" height="30" as="geometry" />
        </mxCell>
        <mxCell id="ZfEygzuSnq6AT3fLOsng-17" value="" style="endArrow=classic;html=1;rounded=0;exitX=0.5;exitY=1;exitDx=0;exitDy=0;" parent="ZfEygzuSnq6AT3fLOsng-1" source="ZfEygzuSnq6AT3fLOsng-15" edge="1">
          <mxGeometry width="50" height="50" relative="1" as="geometry">
            <mxPoint x="372" y="332" as="sourcePoint" />
            <mxPoint x="372" y="342" as="targetPoint" />
          </mxGeometry>
        </mxCell>
        <mxCell id="ZfEygzuSnq6AT3fLOsng-18" value="" style="group" parent="ZfEygzuSnq6AT3fLOsng-1" vertex="1" connectable="0">
          <mxGeometry x="332" y="352" width="80" height="20" as="geometry" />
        </mxCell>
        <mxCell id="ZfEygzuSnq6AT3fLOsng-19" value="" style="endArrow=none;html=1;rounded=0;" parent="ZfEygzuSnq6AT3fLOsng-18" edge="1">
          <mxGeometry width="50" height="50" relative="1" as="geometry">
            <mxPoint as="sourcePoint" />
            <mxPoint x="80" as="targetPoint" />
          </mxGeometry>
        </mxCell>
        <mxCell id="ZfEygzuSnq6AT3fLOsng-20" value="" style="endArrow=none;html=1;rounded=0;" parent="ZfEygzuSnq6AT3fLOsng-18" edge="1">
          <mxGeometry width="50" height="50" relative="1" as="geometry">
            <mxPoint x="10" y="10" as="sourcePoint" />
            <mxPoint x="70" y="10" as="targetPoint" />
          </mxGeometry>
        </mxCell>
        <mxCell id="ZfEygzuSnq6AT3fLOsng-21" value="" style="endArrow=none;html=1;rounded=0;" parent="ZfEygzuSnq6AT3fLOsng-18" edge="1">
          <mxGeometry width="50" height="50" relative="1" as="geometry">
            <mxPoint x="20" y="20" as="sourcePoint" />
            <mxPoint x="60" y="20" as="targetPoint" />
          </mxGeometry>
        </mxCell>
      </root>
    </mxGraphModel>
  </diagram>
  <diagram name="5" id="Ec6zCXMWbqWCkyVYZhgT">
    <mxGraphModel grid="1" page="1" gridSize="10" guides="1" tooltips="1" connect="1" arrows="1" fold="1" pageScale="1" pageWidth="850" pageHeight="1100" math="0" shadow="0">
      <root>
        <mxCell id="5ZalnsbKgYZFmUUFzC9S-0" />
        <mxCell id="5ZalnsbKgYZFmUUFzC9S-1" parent="5ZalnsbKgYZFmUUFzC9S-0" />
        <mxCell id="5ZalnsbKgYZFmUUFzC9S-2" value="&lt;span style=&quot;font-size: 16px;&quot;&gt;Início&lt;/span&gt;" style="text;html=1;align=center;verticalAlign=middle;resizable=0;points=[];autosize=1;strokeColor=none;fillColor=none;" parent="5ZalnsbKgYZFmUUFzC9S-1" vertex="1">
          <mxGeometry x="351" y="80" width="60" height="30" as="geometry" />
        </mxCell>
        <mxCell id="5ZalnsbKgYZFmUUFzC9S-3" value="" style="endArrow=classic;html=1;rounded=0;" parent="5ZalnsbKgYZFmUUFzC9S-1" source="5ZalnsbKgYZFmUUFzC9S-2" target="5ZalnsbKgYZFmUUFzC9S-11" edge="1">
          <mxGeometry width="50" height="50" relative="1" as="geometry">
            <mxPoint x="411" y="182" as="sourcePoint" />
            <mxPoint x="381" y="162" as="targetPoint" />
          </mxGeometry>
        </mxCell>
        <mxCell id="5ZalnsbKgYZFmUUFzC9S-4" value="&lt;span style=&quot;font-size: 16px;&quot;&gt;Fim&lt;/span&gt;" style="text;html=1;align=center;verticalAlign=middle;resizable=0;points=[];autosize=1;strokeColor=none;fillColor=none;" parent="5ZalnsbKgYZFmUUFzC9S-1" vertex="1">
          <mxGeometry x="461" y="80" width="50" height="30" as="geometry" />
        </mxCell>
        <mxCell id="5ZalnsbKgYZFmUUFzC9S-5" value="" style="endArrow=classic;html=1;rounded=0;entryX=1;entryY=0;entryDx=0;entryDy=0;" parent="5ZalnsbKgYZFmUUFzC9S-1" source="5ZalnsbKgYZFmUUFzC9S-4" target="5ZalnsbKgYZFmUUFzC9S-11" edge="1">
          <mxGeometry width="50" height="50" relative="1" as="geometry">
            <mxPoint x="516" y="182" as="sourcePoint" />
            <mxPoint x="427" y="210" as="targetPoint" />
          </mxGeometry>
        </mxCell>
        <mxCell id="5ZalnsbKgYZFmUUFzC9S-10" value="" style="group" parent="5ZalnsbKgYZFmUUFzC9S-1" vertex="1" connectable="0">
          <mxGeometry x="339" y="220" width="80" height="80" as="geometry" />
        </mxCell>
        <mxCell id="5ZalnsbKgYZFmUUFzC9S-11" value="" style="whiteSpace=wrap;html=1;aspect=fixed;" parent="5ZalnsbKgYZFmUUFzC9S-10" vertex="1">
          <mxGeometry width="80" height="80" as="geometry" />
        </mxCell>
        <mxCell id="5ZalnsbKgYZFmUUFzC9S-12" value="&lt;span style=&quot;font-size: 16px;&quot;&gt;55&lt;/span&gt;" style="text;html=1;align=center;verticalAlign=middle;resizable=0;points=[];autosize=1;strokeColor=none;fillColor=none;" parent="5ZalnsbKgYZFmUUFzC9S-10" vertex="1">
          <mxGeometry x="20" y="25" width="40" height="30" as="geometry" />
        </mxCell>
        <mxCell id="5ZalnsbKgYZFmUUFzC9S-13" value="" style="endArrow=classic;html=1;rounded=0;exitX=0.5;exitY=1;exitDx=0;exitDy=0;" parent="5ZalnsbKgYZFmUUFzC9S-1" source="5ZalnsbKgYZFmUUFzC9S-11" edge="1">
          <mxGeometry width="50" height="50" relative="1" as="geometry">
            <mxPoint x="379" y="332" as="sourcePoint" />
            <mxPoint x="379" y="342" as="targetPoint" />
          </mxGeometry>
        </mxCell>
        <mxCell id="5ZalnsbKgYZFmUUFzC9S-14" value="" style="group" parent="5ZalnsbKgYZFmUUFzC9S-1" vertex="1" connectable="0">
          <mxGeometry x="339" y="352" width="80" height="20" as="geometry" />
        </mxCell>
        <mxCell id="5ZalnsbKgYZFmUUFzC9S-15" value="" style="endArrow=none;html=1;rounded=0;" parent="5ZalnsbKgYZFmUUFzC9S-14" edge="1">
          <mxGeometry width="50" height="50" relative="1" as="geometry">
            <mxPoint as="sourcePoint" />
            <mxPoint x="80" as="targetPoint" />
          </mxGeometry>
        </mxCell>
        <mxCell id="5ZalnsbKgYZFmUUFzC9S-16" value="" style="endArrow=none;html=1;rounded=0;" parent="5ZalnsbKgYZFmUUFzC9S-14" edge="1">
          <mxGeometry width="50" height="50" relative="1" as="geometry">
            <mxPoint x="10" y="10" as="sourcePoint" />
            <mxPoint x="70" y="10" as="targetPoint" />
          </mxGeometry>
        </mxCell>
        <mxCell id="5ZalnsbKgYZFmUUFzC9S-17" value="" style="endArrow=none;html=1;rounded=0;" parent="5ZalnsbKgYZFmUUFzC9S-14" edge="1">
          <mxGeometry width="50" height="50" relative="1" as="geometry">
            <mxPoint x="20" y="20" as="sourcePoint" />
            <mxPoint x="60" y="20" as="targetPoint" />
          </mxGeometry>
        </mxCell>
      </root>
    </mxGraphModel>
  </diagram>
  <diagram name="6" id="pp8hNLOs_Qo4AzeGKOiT">
    <mxGraphModel grid="1" page="1" gridSize="10" guides="1" tooltips="1" connect="1" arrows="1" fold="1" pageScale="1" pageWidth="850" pageHeight="1100" math="0" shadow="0">
      <root>
        <mxCell id="p-cDdoEIYS4I9VL6kDrp-0" />
        <mxCell id="p-cDdoEIYS4I9VL6kDrp-1" parent="p-cDdoEIYS4I9VL6kDrp-0" />
        <mxCell id="p-cDdoEIYS4I9VL6kDrp-2" value="&lt;span style=&quot;font-size: 16px;&quot;&gt;Início&lt;/span&gt;" style="text;html=1;align=center;verticalAlign=middle;resizable=0;points=[];autosize=1;strokeColor=none;fillColor=none;" parent="p-cDdoEIYS4I9VL6kDrp-1" vertex="1">
          <mxGeometry x="333" y="80" width="60" height="30" as="geometry" />
        </mxCell>
        <mxCell id="p-cDdoEIYS4I9VL6kDrp-3" value="" style="endArrow=classic;html=1;rounded=0;" parent="p-cDdoEIYS4I9VL6kDrp-1" source="p-cDdoEIYS4I9VL6kDrp-2" target="p-cDdoEIYS4I9VL6kDrp-7" edge="1">
          <mxGeometry width="50" height="50" relative="1" as="geometry">
            <mxPoint x="393" y="182" as="sourcePoint" />
            <mxPoint x="363" y="162" as="targetPoint" />
          </mxGeometry>
        </mxCell>
        <mxCell id="p-cDdoEIYS4I9VL6kDrp-4" value="&lt;span style=&quot;font-size: 16px;&quot;&gt;Fim&lt;/span&gt;" style="text;html=1;align=center;verticalAlign=middle;resizable=0;points=[];autosize=1;strokeColor=none;fillColor=none;" parent="p-cDdoEIYS4I9VL6kDrp-1" vertex="1">
          <mxGeometry x="443" y="80" width="50" height="30" as="geometry" />
        </mxCell>
        <mxCell id="p-cDdoEIYS4I9VL6kDrp-5" value="" style="endArrow=classic;html=1;rounded=0;entryX=1;entryY=0;entryDx=0;entryDy=0;" parent="p-cDdoEIYS4I9VL6kDrp-1" source="p-cDdoEIYS4I9VL6kDrp-4" target="p-cDdoEIYS4I9VL6kDrp-7" edge="1">
          <mxGeometry width="50" height="50" relative="1" as="geometry">
            <mxPoint x="498" y="182" as="sourcePoint" />
            <mxPoint x="409" y="210" as="targetPoint" />
          </mxGeometry>
        </mxCell>
        <mxCell id="p-cDdoEIYS4I9VL6kDrp-6" value="" style="group" parent="p-cDdoEIYS4I9VL6kDrp-1" vertex="1" connectable="0">
          <mxGeometry x="321" y="220" width="80" height="80" as="geometry" />
        </mxCell>
        <mxCell id="p-cDdoEIYS4I9VL6kDrp-7" value="" style="whiteSpace=wrap;html=1;aspect=fixed;" parent="p-cDdoEIYS4I9VL6kDrp-6" vertex="1">
          <mxGeometry width="80" height="80" as="geometry" />
        </mxCell>
        <mxCell id="p-cDdoEIYS4I9VL6kDrp-8" value="&lt;font style=&quot;font-size: 16px;&quot;&gt;55&lt;/font&gt;" style="text;html=1;align=center;verticalAlign=middle;resizable=0;points=[];autosize=1;strokeColor=none;fillColor=none;" parent="p-cDdoEIYS4I9VL6kDrp-6" vertex="1">
          <mxGeometry x="20" y="25" width="40" height="30" as="geometry" />
        </mxCell>
        <mxCell id="p-cDdoEIYS4I9VL6kDrp-9" value="" style="endArrow=classic;html=1;rounded=0;exitX=0.5;exitY=1;exitDx=0;exitDy=0;" parent="p-cDdoEIYS4I9VL6kDrp-1" source="p-cDdoEIYS4I9VL6kDrp-7" edge="1">
          <mxGeometry width="50" height="50" relative="1" as="geometry">
            <mxPoint x="361" y="332" as="sourcePoint" />
            <mxPoint x="361" y="342" as="targetPoint" />
          </mxGeometry>
        </mxCell>
        <mxCell id="p-cDdoEIYS4I9VL6kDrp-10" value="" style="group" parent="p-cDdoEIYS4I9VL6kDrp-1" vertex="1" connectable="0">
          <mxGeometry x="321" y="352" width="80" height="20" as="geometry" />
        </mxCell>
        <mxCell id="p-cDdoEIYS4I9VL6kDrp-11" value="" style="endArrow=none;html=1;rounded=0;" parent="p-cDdoEIYS4I9VL6kDrp-10" edge="1">
          <mxGeometry width="50" height="50" relative="1" as="geometry">
            <mxPoint as="sourcePoint" />
            <mxPoint x="80" as="targetPoint" />
          </mxGeometry>
        </mxCell>
        <mxCell id="p-cDdoEIYS4I9VL6kDrp-12" value="" style="endArrow=none;html=1;rounded=0;" parent="p-cDdoEIYS4I9VL6kDrp-10" edge="1">
          <mxGeometry width="50" height="50" relative="1" as="geometry">
            <mxPoint x="10" y="10" as="sourcePoint" />
            <mxPoint x="70" y="10" as="targetPoint" />
          </mxGeometry>
        </mxCell>
        <mxCell id="p-cDdoEIYS4I9VL6kDrp-13" value="" style="endArrow=none;html=1;rounded=0;" parent="p-cDdoEIYS4I9VL6kDrp-10" edge="1">
          <mxGeometry width="50" height="50" relative="1" as="geometry">
            <mxPoint x="20" y="20" as="sourcePoint" />
            <mxPoint x="60" y="20" as="targetPoint" />
          </mxGeometry>
        </mxCell>
        <mxCell id="2eRKmj_ldqxyWS_0maD3-9" value="" style="group" parent="p-cDdoEIYS4I9VL6kDrp-1" vertex="1" connectable="0">
          <mxGeometry x="449" y="220" width="80" height="80" as="geometry" />
        </mxCell>
        <mxCell id="2eRKmj_ldqxyWS_0maD3-10" value="" style="whiteSpace=wrap;html=1;aspect=fixed;" parent="2eRKmj_ldqxyWS_0maD3-9" vertex="1">
          <mxGeometry width="80" height="80" as="geometry" />
        </mxCell>
        <mxCell id="2eRKmj_ldqxyWS_0maD3-11" value="&lt;font style=&quot;font-size: 16px;&quot;&gt;1&lt;/font&gt;" style="text;html=1;align=center;verticalAlign=middle;resizable=0;points=[];autosize=1;strokeColor=none;fillColor=none;" parent="2eRKmj_ldqxyWS_0maD3-9" vertex="1">
          <mxGeometry x="25" y="25" width="30" height="30" as="geometry" />
        </mxCell>
        <mxCell id="2eRKmj_ldqxyWS_0maD3-12" value="" style="endArrow=classic;html=1;rounded=0;exitX=0.5;exitY=1;exitDx=0;exitDy=0;" parent="p-cDdoEIYS4I9VL6kDrp-1" source="2eRKmj_ldqxyWS_0maD3-10" edge="1">
          <mxGeometry width="50" height="50" relative="1" as="geometry">
            <mxPoint x="489" y="332" as="sourcePoint" />
            <mxPoint x="489" y="342" as="targetPoint" />
          </mxGeometry>
        </mxCell>
        <mxCell id="2eRKmj_ldqxyWS_0maD3-13" value="" style="group" parent="p-cDdoEIYS4I9VL6kDrp-1" vertex="1" connectable="0">
          <mxGeometry x="449" y="352" width="80" height="20" as="geometry" />
        </mxCell>
        <mxCell id="2eRKmj_ldqxyWS_0maD3-14" value="" style="endArrow=none;html=1;rounded=0;" parent="2eRKmj_ldqxyWS_0maD3-13" edge="1">
          <mxGeometry width="50" height="50" relative="1" as="geometry">
            <mxPoint as="sourcePoint" />
            <mxPoint x="80" as="targetPoint" />
          </mxGeometry>
        </mxCell>
        <mxCell id="2eRKmj_ldqxyWS_0maD3-15" value="" style="endArrow=none;html=1;rounded=0;" parent="2eRKmj_ldqxyWS_0maD3-13" edge="1">
          <mxGeometry width="50" height="50" relative="1" as="geometry">
            <mxPoint x="10" y="10" as="sourcePoint" />
            <mxPoint x="70" y="10" as="targetPoint" />
          </mxGeometry>
        </mxCell>
        <mxCell id="2eRKmj_ldqxyWS_0maD3-16" value="" style="endArrow=none;html=1;rounded=0;" parent="2eRKmj_ldqxyWS_0maD3-13" edge="1">
          <mxGeometry width="50" height="50" relative="1" as="geometry">
            <mxPoint x="20" y="20" as="sourcePoint" />
            <mxPoint x="60" y="20" as="targetPoint" />
          </mxGeometry>
        </mxCell>
      </root>
    </mxGraphModel>
  </diagram>
  <diagram name="7" id="TpZbYdUPshe6bFbl4bZL">
    <mxGraphModel grid="1" page="1" gridSize="10" guides="1" tooltips="1" connect="1" arrows="1" fold="1" pageScale="1" pageWidth="850" pageHeight="1100" math="0" shadow="0">
      <root>
        <mxCell id="o0eYkH9bYAFpaLF8-UYh-0" />
        <mxCell id="o0eYkH9bYAFpaLF8-UYh-1" parent="o0eYkH9bYAFpaLF8-UYh-0" />
        <mxCell id="o0eYkH9bYAFpaLF8-UYh-2" value="&lt;span style=&quot;font-size: 16px;&quot;&gt;Início&lt;/span&gt;" style="text;html=1;align=center;verticalAlign=middle;resizable=0;points=[];autosize=1;strokeColor=none;fillColor=none;" parent="o0eYkH9bYAFpaLF8-UYh-1" vertex="1">
          <mxGeometry x="318" y="80" width="60" height="30" as="geometry" />
        </mxCell>
        <mxCell id="o0eYkH9bYAFpaLF8-UYh-3" value="" style="endArrow=classic;html=1;rounded=0;" parent="o0eYkH9bYAFpaLF8-UYh-1" source="o0eYkH9bYAFpaLF8-UYh-2" target="o0eYkH9bYAFpaLF8-UYh-7" edge="1">
          <mxGeometry width="50" height="50" relative="1" as="geometry">
            <mxPoint x="378" y="182" as="sourcePoint" />
            <mxPoint x="348" y="162" as="targetPoint" />
          </mxGeometry>
        </mxCell>
        <mxCell id="o0eYkH9bYAFpaLF8-UYh-4" value="&lt;span style=&quot;font-size: 16px;&quot;&gt;Fim&lt;/span&gt;" style="text;html=1;align=center;verticalAlign=middle;resizable=0;points=[];autosize=1;strokeColor=none;fillColor=none;" parent="o0eYkH9bYAFpaLF8-UYh-1" vertex="1">
          <mxGeometry x="428" y="80" width="50" height="30" as="geometry" />
        </mxCell>
        <mxCell id="o0eYkH9bYAFpaLF8-UYh-5" value="" style="endArrow=classic;html=1;rounded=0;entryX=1;entryY=0;entryDx=0;entryDy=0;" parent="o0eYkH9bYAFpaLF8-UYh-1" source="o0eYkH9bYAFpaLF8-UYh-4" target="o0eYkH9bYAFpaLF8-UYh-7" edge="1">
          <mxGeometry width="50" height="50" relative="1" as="geometry">
            <mxPoint x="483" y="182" as="sourcePoint" />
            <mxPoint x="394" y="210" as="targetPoint" />
          </mxGeometry>
        </mxCell>
        <mxCell id="o0eYkH9bYAFpaLF8-UYh-6" value="" style="group" parent="o0eYkH9bYAFpaLF8-UYh-1" vertex="1" connectable="0">
          <mxGeometry x="306" y="220" width="80" height="80" as="geometry" />
        </mxCell>
        <mxCell id="o0eYkH9bYAFpaLF8-UYh-7" value="" style="whiteSpace=wrap;html=1;aspect=fixed;" parent="o0eYkH9bYAFpaLF8-UYh-6" vertex="1">
          <mxGeometry width="80" height="80" as="geometry" />
        </mxCell>
        <mxCell id="o0eYkH9bYAFpaLF8-UYh-8" value="&lt;font style=&quot;font-size: 16px;&quot;&gt;55&lt;/font&gt;" style="text;html=1;align=center;verticalAlign=middle;resizable=0;points=[];autosize=1;strokeColor=none;fillColor=none;" parent="o0eYkH9bYAFpaLF8-UYh-6" vertex="1">
          <mxGeometry x="20" y="25" width="40" height="30" as="geometry" />
        </mxCell>
        <mxCell id="o0eYkH9bYAFpaLF8-UYh-14" value="" style="group" parent="o0eYkH9bYAFpaLF8-UYh-1" vertex="1" connectable="0">
          <mxGeometry x="464" y="220" width="80" height="80" as="geometry" />
        </mxCell>
        <mxCell id="o0eYkH9bYAFpaLF8-UYh-15" value="" style="whiteSpace=wrap;html=1;aspect=fixed;" parent="o0eYkH9bYAFpaLF8-UYh-14" vertex="1">
          <mxGeometry width="80" height="80" as="geometry" />
        </mxCell>
        <mxCell id="o0eYkH9bYAFpaLF8-UYh-16" value="&lt;font style=&quot;font-size: 16px;&quot;&gt;1&lt;/font&gt;" style="text;html=1;align=center;verticalAlign=middle;resizable=0;points=[];autosize=1;strokeColor=none;fillColor=none;" parent="o0eYkH9bYAFpaLF8-UYh-14" vertex="1">
          <mxGeometry x="25" y="25" width="30" height="30" as="geometry" />
        </mxCell>
        <mxCell id="o0eYkH9bYAFpaLF8-UYh-17" value="" style="endArrow=classic;html=1;rounded=0;exitX=0.5;exitY=1;exitDx=0;exitDy=0;" parent="o0eYkH9bYAFpaLF8-UYh-1" source="o0eYkH9bYAFpaLF8-UYh-15" edge="1">
          <mxGeometry width="50" height="50" relative="1" as="geometry">
            <mxPoint x="504" y="332" as="sourcePoint" />
            <mxPoint x="504" y="342" as="targetPoint" />
          </mxGeometry>
        </mxCell>
        <mxCell id="o0eYkH9bYAFpaLF8-UYh-18" value="" style="group" parent="o0eYkH9bYAFpaLF8-UYh-1" vertex="1" connectable="0">
          <mxGeometry x="464" y="352" width="80" height="20" as="geometry" />
        </mxCell>
        <mxCell id="o0eYkH9bYAFpaLF8-UYh-19" value="" style="endArrow=none;html=1;rounded=0;" parent="o0eYkH9bYAFpaLF8-UYh-18" edge="1">
          <mxGeometry width="50" height="50" relative="1" as="geometry">
            <mxPoint as="sourcePoint" />
            <mxPoint x="80" as="targetPoint" />
          </mxGeometry>
        </mxCell>
        <mxCell id="o0eYkH9bYAFpaLF8-UYh-20" value="" style="endArrow=none;html=1;rounded=0;" parent="o0eYkH9bYAFpaLF8-UYh-18" edge="1">
          <mxGeometry width="50" height="50" relative="1" as="geometry">
            <mxPoint x="10" y="10" as="sourcePoint" />
            <mxPoint x="70" y="10" as="targetPoint" />
          </mxGeometry>
        </mxCell>
        <mxCell id="o0eYkH9bYAFpaLF8-UYh-21" value="" style="endArrow=none;html=1;rounded=0;" parent="o0eYkH9bYAFpaLF8-UYh-18" edge="1">
          <mxGeometry width="50" height="50" relative="1" as="geometry">
            <mxPoint x="20" y="20" as="sourcePoint" />
            <mxPoint x="60" y="20" as="targetPoint" />
          </mxGeometry>
        </mxCell>
        <mxCell id="NJ0hAFGRGzCW70mJIuQw-0" style="edgeStyle=orthogonalEdgeStyle;rounded=0;orthogonalLoop=1;jettySize=auto;html=1;entryX=0;entryY=0.5;entryDx=0;entryDy=0;" edge="1" parent="o0eYkH9bYAFpaLF8-UYh-1" source="o0eYkH9bYAFpaLF8-UYh-7" target="o0eYkH9bYAFpaLF8-UYh-15">
          <mxGeometry relative="1" as="geometry" />
        </mxCell>
      </root>
    </mxGraphModel>
  </diagram>
  <diagram name="8" id="UL2peN4Sl88rTiUaTpxW">
    <mxGraphModel grid="1" page="1" gridSize="10" guides="1" tooltips="1" connect="1" arrows="1" fold="1" pageScale="1" pageWidth="850" pageHeight="1100" math="0" shadow="0">
      <root>
        <mxCell id="4kuTZAxvnnZRfZYUC2ZH-0" />
        <mxCell id="4kuTZAxvnnZRfZYUC2ZH-1" parent="4kuTZAxvnnZRfZYUC2ZH-0" />
        <mxCell id="4kuTZAxvnnZRfZYUC2ZH-2" value="&lt;span style=&quot;font-size: 16px;&quot;&gt;Início&lt;/span&gt;" style="text;html=1;align=center;verticalAlign=middle;resizable=0;points=[];autosize=1;strokeColor=none;fillColor=none;" parent="4kuTZAxvnnZRfZYUC2ZH-1" vertex="1">
          <mxGeometry x="308" y="80" width="60" height="30" as="geometry" />
        </mxCell>
        <mxCell id="4kuTZAxvnnZRfZYUC2ZH-3" value="" style="endArrow=classic;html=1;rounded=0;" parent="4kuTZAxvnnZRfZYUC2ZH-1" source="4kuTZAxvnnZRfZYUC2ZH-2" target="4kuTZAxvnnZRfZYUC2ZH-7" edge="1">
          <mxGeometry width="50" height="50" relative="1" as="geometry">
            <mxPoint x="368" y="182" as="sourcePoint" />
            <mxPoint x="338" y="162" as="targetPoint" />
          </mxGeometry>
        </mxCell>
        <mxCell id="6Gz6oyI1IL4Y3TmF-uy4-0" style="edgeStyle=orthogonalEdgeStyle;rounded=0;orthogonalLoop=1;jettySize=auto;html=1;entryX=0.5;entryY=0;entryDx=0;entryDy=0;" edge="1" parent="4kuTZAxvnnZRfZYUC2ZH-1" source="4kuTZAxvnnZRfZYUC2ZH-4" target="4kuTZAxvnnZRfZYUC2ZH-15">
          <mxGeometry relative="1" as="geometry" />
        </mxCell>
        <mxCell id="4kuTZAxvnnZRfZYUC2ZH-4" value="&lt;span style=&quot;font-size: 16px;&quot;&gt;Fim&lt;/span&gt;" style="text;html=1;align=center;verticalAlign=middle;resizable=0;points=[];autosize=1;strokeColor=none;fillColor=none;" parent="4kuTZAxvnnZRfZYUC2ZH-1" vertex="1">
          <mxGeometry x="489" y="80" width="50" height="30" as="geometry" />
        </mxCell>
        <mxCell id="4kuTZAxvnnZRfZYUC2ZH-6" value="" style="group" parent="4kuTZAxvnnZRfZYUC2ZH-1" vertex="1" connectable="0">
          <mxGeometry x="296" y="220" width="78" height="80" as="geometry" />
        </mxCell>
        <mxCell id="4kuTZAxvnnZRfZYUC2ZH-7" value="" style="whiteSpace=wrap;html=1;aspect=fixed;" parent="4kuTZAxvnnZRfZYUC2ZH-6" vertex="1">
          <mxGeometry width="78" height="78" as="geometry" />
        </mxCell>
        <mxCell id="4kuTZAxvnnZRfZYUC2ZH-8" value="&lt;font style=&quot;font-size: 16px;&quot;&gt;55&lt;/font&gt;" style="text;html=1;align=center;verticalAlign=middle;resizable=0;points=[];autosize=1;strokeColor=none;fillColor=none;" parent="4kuTZAxvnnZRfZYUC2ZH-6" vertex="1">
          <mxGeometry x="19.5" y="25" width="40" height="30" as="geometry" />
        </mxCell>
        <mxCell id="4kuTZAxvnnZRfZYUC2ZH-14" value="" style="group" parent="4kuTZAxvnnZRfZYUC2ZH-1" vertex="1" connectable="0">
          <mxGeometry x="474" y="220" width="80" height="80" as="geometry" />
        </mxCell>
        <mxCell id="4kuTZAxvnnZRfZYUC2ZH-15" value="" style="whiteSpace=wrap;html=1;aspect=fixed;" parent="4kuTZAxvnnZRfZYUC2ZH-14" vertex="1">
          <mxGeometry width="80" height="80" as="geometry" />
        </mxCell>
        <mxCell id="4kuTZAxvnnZRfZYUC2ZH-16" value="&lt;font style=&quot;font-size: 16px;&quot;&gt;1&lt;/font&gt;" style="text;html=1;align=center;verticalAlign=middle;resizable=0;points=[];autosize=1;strokeColor=none;fillColor=none;" parent="4kuTZAxvnnZRfZYUC2ZH-14" vertex="1">
          <mxGeometry x="25" y="25" width="30" height="30" as="geometry" />
        </mxCell>
        <mxCell id="4kuTZAxvnnZRfZYUC2ZH-17" value="" style="endArrow=classic;html=1;rounded=0;exitX=0.5;exitY=1;exitDx=0;exitDy=0;" parent="4kuTZAxvnnZRfZYUC2ZH-1" source="4kuTZAxvnnZRfZYUC2ZH-15" edge="1">
          <mxGeometry width="50" height="50" relative="1" as="geometry">
            <mxPoint x="514" y="332" as="sourcePoint" />
            <mxPoint x="514" y="342" as="targetPoint" />
          </mxGeometry>
        </mxCell>
        <mxCell id="4kuTZAxvnnZRfZYUC2ZH-18" value="" style="group" parent="4kuTZAxvnnZRfZYUC2ZH-1" vertex="1" connectable="0">
          <mxGeometry x="474" y="352" width="80" height="20" as="geometry" />
        </mxCell>
        <mxCell id="4kuTZAxvnnZRfZYUC2ZH-19" value="" style="endArrow=none;html=1;rounded=0;" parent="4kuTZAxvnnZRfZYUC2ZH-18" edge="1">
          <mxGeometry width="50" height="50" relative="1" as="geometry">
            <mxPoint as="sourcePoint" />
            <mxPoint x="80" as="targetPoint" />
          </mxGeometry>
        </mxCell>
        <mxCell id="4kuTZAxvnnZRfZYUC2ZH-20" value="" style="endArrow=none;html=1;rounded=0;" parent="4kuTZAxvnnZRfZYUC2ZH-18" edge="1">
          <mxGeometry width="50" height="50" relative="1" as="geometry">
            <mxPoint x="10" y="10" as="sourcePoint" />
            <mxPoint x="70" y="10" as="targetPoint" />
          </mxGeometry>
        </mxCell>
        <mxCell id="4kuTZAxvnnZRfZYUC2ZH-21" value="" style="endArrow=none;html=1;rounded=0;" parent="4kuTZAxvnnZRfZYUC2ZH-18" edge="1">
          <mxGeometry width="50" height="50" relative="1" as="geometry">
            <mxPoint x="20" y="20" as="sourcePoint" />
            <mxPoint x="60" y="20" as="targetPoint" />
          </mxGeometry>
        </mxCell>
        <mxCell id="izD5MIMsTbRXiPCPwR7l-0" style="edgeStyle=orthogonalEdgeStyle;rounded=0;orthogonalLoop=1;jettySize=auto;html=1;" parent="4kuTZAxvnnZRfZYUC2ZH-1" source="4kuTZAxvnnZRfZYUC2ZH-7" target="4kuTZAxvnnZRfZYUC2ZH-15" edge="1">
          <mxGeometry relative="1" as="geometry" />
        </mxCell>
      </root>
    </mxGraphModel>
  </diagram>
  <diagram name="10" id="wl4KvaepUn1zGuIMF0cI">
    <mxGraphModel grid="1" page="1" gridSize="10" guides="1" tooltips="1" connect="1" arrows="1" fold="1" pageScale="1" pageWidth="850" pageHeight="1100" math="0" shadow="0">
      <root>
        <mxCell id="ZijloQsSQXWUowURTVbN-0" />
        <mxCell id="ZijloQsSQXWUowURTVbN-1" parent="ZijloQsSQXWUowURTVbN-0" />
        <mxCell id="ZijloQsSQXWUowURTVbN-2" value="&lt;span style=&quot;font-size: 16px;&quot;&gt;Início&lt;/span&gt;" style="text;html=1;align=center;verticalAlign=middle;resizable=0;points=[];autosize=1;strokeColor=none;fillColor=none;" vertex="1" parent="ZijloQsSQXWUowURTVbN-1">
          <mxGeometry x="308" y="80" width="60" height="30" as="geometry" />
        </mxCell>
        <mxCell id="ZijloQsSQXWUowURTVbN-3" value="" style="endArrow=classic;html=1;rounded=0;" edge="1" parent="ZijloQsSQXWUowURTVbN-1" source="ZijloQsSQXWUowURTVbN-2" target="ZijloQsSQXWUowURTVbN-7">
          <mxGeometry width="50" height="50" relative="1" as="geometry">
            <mxPoint x="368" y="182" as="sourcePoint" />
            <mxPoint x="338" y="162" as="targetPoint" />
          </mxGeometry>
        </mxCell>
        <mxCell id="ZijloQsSQXWUowURTVbN-4" value="&lt;span style=&quot;font-size: 16px;&quot;&gt;Fim&lt;/span&gt;" style="text;html=1;align=center;verticalAlign=middle;resizable=0;points=[];autosize=1;strokeColor=none;fillColor=none;" vertex="1" parent="ZijloQsSQXWUowURTVbN-1">
          <mxGeometry x="489" y="130" width="50" height="30" as="geometry" />
        </mxCell>
        <mxCell id="ZijloQsSQXWUowURTVbN-5" value="" style="endArrow=classic;html=1;rounded=0;entryX=0.5;entryY=0;entryDx=0;entryDy=0;" edge="1" parent="ZijloQsSQXWUowURTVbN-1" source="ZijloQsSQXWUowURTVbN-4" target="ZijloQsSQXWUowURTVbN-15">
          <mxGeometry width="50" height="50" relative="1" as="geometry">
            <mxPoint x="473" y="182" as="sourcePoint" />
            <mxPoint x="384" y="210" as="targetPoint" />
          </mxGeometry>
        </mxCell>
        <mxCell id="ZijloQsSQXWUowURTVbN-6" value="" style="group" vertex="1" connectable="0" parent="ZijloQsSQXWUowURTVbN-1">
          <mxGeometry x="296" y="220" width="78" height="80" as="geometry" />
        </mxCell>
        <mxCell id="ZijloQsSQXWUowURTVbN-7" value="" style="whiteSpace=wrap;html=1;aspect=fixed;" vertex="1" parent="ZijloQsSQXWUowURTVbN-6">
          <mxGeometry width="78" height="78" as="geometry" />
        </mxCell>
        <mxCell id="ZijloQsSQXWUowURTVbN-8" value="&lt;font style=&quot;font-size: 16px;&quot;&gt;55&lt;/font&gt;" style="text;html=1;align=center;verticalAlign=middle;resizable=0;points=[];autosize=1;strokeColor=none;fillColor=none;" vertex="1" parent="ZijloQsSQXWUowURTVbN-6">
          <mxGeometry x="19.5" y="25" width="40" height="30" as="geometry" />
        </mxCell>
        <mxCell id="ZijloQsSQXWUowURTVbN-14" value="" style="group" vertex="1" connectable="0" parent="ZijloQsSQXWUowURTVbN-1">
          <mxGeometry x="474" y="220" width="80" height="80" as="geometry" />
        </mxCell>
        <mxCell id="ZijloQsSQXWUowURTVbN-15" value="" style="whiteSpace=wrap;html=1;aspect=fixed;" vertex="1" parent="ZijloQsSQXWUowURTVbN-14">
          <mxGeometry width="80" height="80" as="geometry" />
        </mxCell>
        <mxCell id="ZijloQsSQXWUowURTVbN-16" value="&lt;font style=&quot;font-size: 16px;&quot;&gt;1&lt;/font&gt;" style="text;html=1;align=center;verticalAlign=middle;resizable=0;points=[];autosize=1;strokeColor=none;fillColor=none;" vertex="1" parent="ZijloQsSQXWUowURTVbN-14">
          <mxGeometry x="25" y="25" width="30" height="30" as="geometry" />
        </mxCell>
        <mxCell id="ZijloQsSQXWUowURTVbN-17" value="" style="endArrow=classic;html=1;rounded=0;exitX=0.5;exitY=1;exitDx=0;exitDy=0;" edge="1" parent="ZijloQsSQXWUowURTVbN-1" source="ZijloQsSQXWUowURTVbN-15">
          <mxGeometry width="50" height="50" relative="1" as="geometry">
            <mxPoint x="514" y="332" as="sourcePoint" />
            <mxPoint x="514" y="342" as="targetPoint" />
          </mxGeometry>
        </mxCell>
        <mxCell id="ZijloQsSQXWUowURTVbN-18" value="" style="group" vertex="1" connectable="0" parent="ZijloQsSQXWUowURTVbN-1">
          <mxGeometry x="474" y="352" width="80" height="20" as="geometry" />
        </mxCell>
        <mxCell id="ZijloQsSQXWUowURTVbN-19" value="" style="endArrow=none;html=1;rounded=0;" edge="1" parent="ZijloQsSQXWUowURTVbN-18">
          <mxGeometry width="50" height="50" relative="1" as="geometry">
            <mxPoint as="sourcePoint" />
            <mxPoint x="80" as="targetPoint" />
          </mxGeometry>
        </mxCell>
        <mxCell id="ZijloQsSQXWUowURTVbN-20" value="" style="endArrow=none;html=1;rounded=0;" edge="1" parent="ZijloQsSQXWUowURTVbN-18">
          <mxGeometry width="50" height="50" relative="1" as="geometry">
            <mxPoint x="10" y="10" as="sourcePoint" />
            <mxPoint x="70" y="10" as="targetPoint" />
          </mxGeometry>
        </mxCell>
        <mxCell id="ZijloQsSQXWUowURTVbN-21" value="" style="endArrow=none;html=1;rounded=0;" edge="1" parent="ZijloQsSQXWUowURTVbN-18">
          <mxGeometry width="50" height="50" relative="1" as="geometry">
            <mxPoint x="20" y="20" as="sourcePoint" />
            <mxPoint x="60" y="20" as="targetPoint" />
          </mxGeometry>
        </mxCell>
        <mxCell id="ZijloQsSQXWUowURTVbN-22" style="edgeStyle=orthogonalEdgeStyle;rounded=0;orthogonalLoop=1;jettySize=auto;html=1;" edge="1" parent="ZijloQsSQXWUowURTVbN-1" source="ZijloQsSQXWUowURTVbN-7" target="ZijloQsSQXWUowURTVbN-15">
          <mxGeometry relative="1" as="geometry" />
        </mxCell>
        <mxCell id="XgsU2mFRo9fj7Tz3UF2Y-0" value="&lt;span style=&quot;font-size: 16px;&quot;&gt;AUX&lt;/span&gt;" style="text;html=1;align=center;verticalAlign=middle;resizable=0;points=[];autosize=1;strokeColor=none;fillColor=none;" vertex="1" parent="ZijloQsSQXWUowURTVbN-1">
          <mxGeometry x="170" y="130" width="60" height="30" as="geometry" />
        </mxCell>
        <mxCell id="XgsU2mFRo9fj7Tz3UF2Y-1" value="" style="endArrow=classic;html=1;rounded=0;exitX=0.517;exitY=1.033;exitDx=0;exitDy=0;exitPerimeter=0;entryX=0.25;entryY=0;entryDx=0;entryDy=0;" edge="1" parent="ZijloQsSQXWUowURTVbN-1" source="XgsU2mFRo9fj7Tz3UF2Y-0" target="ZijloQsSQXWUowURTVbN-7">
          <mxGeometry width="50" height="50" relative="1" as="geometry">
            <mxPoint x="400" y="300" as="sourcePoint" />
            <mxPoint x="450" y="250" as="targetPoint" />
          </mxGeometry>
        </mxCell>
      </root>
    </mxGraphModel>
  </diagram>
  <diagram name="12" id="9uDAsdwNoHuE1xN_tUI3">
    <mxGraphModel grid="1" page="1" gridSize="10" guides="1" tooltips="1" connect="1" arrows="1" fold="1" pageScale="1" pageWidth="850" pageHeight="1100" math="0" shadow="0">
      <root>
        <mxCell id="b-iazSn1lVHsp1MWFXPE-0" />
        <mxCell id="b-iazSn1lVHsp1MWFXPE-1" parent="b-iazSn1lVHsp1MWFXPE-0" />
        <mxCell id="b-iazSn1lVHsp1MWFXPE-2" value="&lt;span style=&quot;font-size: 16px;&quot;&gt;Início&lt;/span&gt;" style="text;html=1;align=center;verticalAlign=middle;resizable=0;points=[];autosize=1;strokeColor=none;fillColor=none;" vertex="1" parent="b-iazSn1lVHsp1MWFXPE-1">
          <mxGeometry x="308" y="80" width="60" height="30" as="geometry" />
        </mxCell>
        <mxCell id="b-iazSn1lVHsp1MWFXPE-3" value="" style="endArrow=classic;html=1;rounded=0;entryX=0.138;entryY=0.025;entryDx=0;entryDy=0;entryPerimeter=0;" edge="1" parent="b-iazSn1lVHsp1MWFXPE-1" source="b-iazSn1lVHsp1MWFXPE-2" target="b-iazSn1lVHsp1MWFXPE-15">
          <mxGeometry width="50" height="50" relative="1" as="geometry">
            <mxPoint x="368" y="182" as="sourcePoint" />
            <mxPoint x="338" y="162" as="targetPoint" />
          </mxGeometry>
        </mxCell>
        <mxCell id="b-iazSn1lVHsp1MWFXPE-4" value="&lt;span style=&quot;font-size: 16px;&quot;&gt;Fim&lt;/span&gt;" style="text;html=1;align=center;verticalAlign=middle;resizable=0;points=[];autosize=1;strokeColor=none;fillColor=none;" vertex="1" parent="b-iazSn1lVHsp1MWFXPE-1">
          <mxGeometry x="489" y="130" width="50" height="30" as="geometry" />
        </mxCell>
        <mxCell id="b-iazSn1lVHsp1MWFXPE-5" value="" style="endArrow=classic;html=1;rounded=0;entryX=0.5;entryY=0;entryDx=0;entryDy=0;" edge="1" parent="b-iazSn1lVHsp1MWFXPE-1" source="b-iazSn1lVHsp1MWFXPE-4" target="b-iazSn1lVHsp1MWFXPE-15">
          <mxGeometry width="50" height="50" relative="1" as="geometry">
            <mxPoint x="473" y="182" as="sourcePoint" />
            <mxPoint x="384" y="210" as="targetPoint" />
          </mxGeometry>
        </mxCell>
        <mxCell id="b-iazSn1lVHsp1MWFXPE-6" value="" style="group" vertex="1" connectable="0" parent="b-iazSn1lVHsp1MWFXPE-1">
          <mxGeometry x="296" y="220" width="78" height="80" as="geometry" />
        </mxCell>
        <mxCell id="b-iazSn1lVHsp1MWFXPE-7" value="" style="whiteSpace=wrap;html=1;aspect=fixed;" vertex="1" parent="b-iazSn1lVHsp1MWFXPE-6">
          <mxGeometry width="78" height="78" as="geometry" />
        </mxCell>
        <mxCell id="b-iazSn1lVHsp1MWFXPE-8" value="&lt;font style=&quot;font-size: 16px;&quot;&gt;55&lt;/font&gt;" style="text;html=1;align=center;verticalAlign=middle;resizable=0;points=[];autosize=1;strokeColor=none;fillColor=none;" vertex="1" parent="b-iazSn1lVHsp1MWFXPE-6">
          <mxGeometry x="19.5" y="25" width="40" height="30" as="geometry" />
        </mxCell>
        <mxCell id="b-iazSn1lVHsp1MWFXPE-14" value="" style="group" vertex="1" connectable="0" parent="b-iazSn1lVHsp1MWFXPE-1">
          <mxGeometry x="474" y="220" width="80" height="80" as="geometry" />
        </mxCell>
        <mxCell id="b-iazSn1lVHsp1MWFXPE-15" value="" style="whiteSpace=wrap;html=1;aspect=fixed;" vertex="1" parent="b-iazSn1lVHsp1MWFXPE-14">
          <mxGeometry width="80" height="80" as="geometry" />
        </mxCell>
        <mxCell id="b-iazSn1lVHsp1MWFXPE-16" value="&lt;font style=&quot;font-size: 16px;&quot;&gt;1&lt;/font&gt;" style="text;html=1;align=center;verticalAlign=middle;resizable=0;points=[];autosize=1;strokeColor=none;fillColor=none;" vertex="1" parent="b-iazSn1lVHsp1MWFXPE-14">
          <mxGeometry x="25" y="25" width="30" height="30" as="geometry" />
        </mxCell>
        <mxCell id="b-iazSn1lVHsp1MWFXPE-17" value="" style="endArrow=classic;html=1;rounded=0;exitX=0.5;exitY=1;exitDx=0;exitDy=0;" edge="1" parent="b-iazSn1lVHsp1MWFXPE-1" source="b-iazSn1lVHsp1MWFXPE-15">
          <mxGeometry width="50" height="50" relative="1" as="geometry">
            <mxPoint x="514" y="332" as="sourcePoint" />
            <mxPoint x="514" y="342" as="targetPoint" />
          </mxGeometry>
        </mxCell>
        <mxCell id="b-iazSn1lVHsp1MWFXPE-18" value="" style="group" vertex="1" connectable="0" parent="b-iazSn1lVHsp1MWFXPE-1">
          <mxGeometry x="474" y="352" width="80" height="20" as="geometry" />
        </mxCell>
        <mxCell id="b-iazSn1lVHsp1MWFXPE-19" value="" style="endArrow=none;html=1;rounded=0;" edge="1" parent="b-iazSn1lVHsp1MWFXPE-18">
          <mxGeometry width="50" height="50" relative="1" as="geometry">
            <mxPoint as="sourcePoint" />
            <mxPoint x="80" as="targetPoint" />
          </mxGeometry>
        </mxCell>
        <mxCell id="b-iazSn1lVHsp1MWFXPE-20" value="" style="endArrow=none;html=1;rounded=0;" edge="1" parent="b-iazSn1lVHsp1MWFXPE-18">
          <mxGeometry width="50" height="50" relative="1" as="geometry">
            <mxPoint x="10" y="10" as="sourcePoint" />
            <mxPoint x="70" y="10" as="targetPoint" />
          </mxGeometry>
        </mxCell>
        <mxCell id="b-iazSn1lVHsp1MWFXPE-21" value="" style="endArrow=none;html=1;rounded=0;" edge="1" parent="b-iazSn1lVHsp1MWFXPE-18">
          <mxGeometry width="50" height="50" relative="1" as="geometry">
            <mxPoint x="20" y="20" as="sourcePoint" />
            <mxPoint x="60" y="20" as="targetPoint" />
          </mxGeometry>
        </mxCell>
        <mxCell id="b-iazSn1lVHsp1MWFXPE-22" style="edgeStyle=orthogonalEdgeStyle;rounded=0;orthogonalLoop=1;jettySize=auto;html=1;" edge="1" parent="b-iazSn1lVHsp1MWFXPE-1" source="b-iazSn1lVHsp1MWFXPE-7" target="b-iazSn1lVHsp1MWFXPE-15">
          <mxGeometry relative="1" as="geometry" />
        </mxCell>
        <mxCell id="b-iazSn1lVHsp1MWFXPE-23" value="&lt;span style=&quot;font-size: 16px;&quot;&gt;AUX&lt;/span&gt;" style="text;html=1;align=center;verticalAlign=middle;resizable=0;points=[];autosize=1;strokeColor=none;fillColor=none;" vertex="1" parent="b-iazSn1lVHsp1MWFXPE-1">
          <mxGeometry x="170" y="130" width="60" height="30" as="geometry" />
        </mxCell>
        <mxCell id="b-iazSn1lVHsp1MWFXPE-24" value="" style="endArrow=classic;html=1;rounded=0;exitX=0.517;exitY=1.033;exitDx=0;exitDy=0;exitPerimeter=0;entryX=0.25;entryY=0;entryDx=0;entryDy=0;" edge="1" parent="b-iazSn1lVHsp1MWFXPE-1" source="b-iazSn1lVHsp1MWFXPE-23" target="b-iazSn1lVHsp1MWFXPE-7">
          <mxGeometry width="50" height="50" relative="1" as="geometry">
            <mxPoint x="400" y="300" as="sourcePoint" />
            <mxPoint x="450" y="250" as="targetPoint" />
          </mxGeometry>
        </mxCell>
      </root>
    </mxGraphModel>
  </diagram>
  <diagram name="13" id="6lQMCAaKTzNcvkgFLBLd">
    <mxGraphModel grid="1" page="1" gridSize="10" guides="1" tooltips="1" connect="1" arrows="1" fold="1" pageScale="1" pageWidth="850" pageHeight="1100" math="0" shadow="0">
      <root>
        <mxCell id="kC-4KnUJyhWDZSFwsxl6-0" />
        <mxCell id="kC-4KnUJyhWDZSFwsxl6-1" parent="kC-4KnUJyhWDZSFwsxl6-0" />
        <mxCell id="kC-4KnUJyhWDZSFwsxl6-2" value="&lt;span style=&quot;font-size: 16px;&quot;&gt;Início&lt;/span&gt;" style="text;html=1;align=center;verticalAlign=middle;resizable=0;points=[];autosize=1;strokeColor=none;fillColor=none;" vertex="1" parent="kC-4KnUJyhWDZSFwsxl6-1">
          <mxGeometry x="308" y="80" width="60" height="30" as="geometry" />
        </mxCell>
        <mxCell id="kC-4KnUJyhWDZSFwsxl6-3" value="" style="endArrow=classic;html=1;rounded=0;entryX=0.138;entryY=0.025;entryDx=0;entryDy=0;entryPerimeter=0;" edge="1" parent="kC-4KnUJyhWDZSFwsxl6-1" source="kC-4KnUJyhWDZSFwsxl6-2" target="kC-4KnUJyhWDZSFwsxl6-15">
          <mxGeometry width="50" height="50" relative="1" as="geometry">
            <mxPoint x="368" y="182" as="sourcePoint" />
            <mxPoint x="338" y="162" as="targetPoint" />
          </mxGeometry>
        </mxCell>
        <mxCell id="kC-4KnUJyhWDZSFwsxl6-4" value="&lt;span style=&quot;font-size: 16px;&quot;&gt;Fim&lt;/span&gt;" style="text;html=1;align=center;verticalAlign=middle;resizable=0;points=[];autosize=1;strokeColor=none;fillColor=none;" vertex="1" parent="kC-4KnUJyhWDZSFwsxl6-1">
          <mxGeometry x="489" y="130" width="50" height="30" as="geometry" />
        </mxCell>
        <mxCell id="kC-4KnUJyhWDZSFwsxl6-5" value="" style="endArrow=classic;html=1;rounded=0;entryX=0.5;entryY=0;entryDx=0;entryDy=0;" edge="1" parent="kC-4KnUJyhWDZSFwsxl6-1" source="kC-4KnUJyhWDZSFwsxl6-4" target="kC-4KnUJyhWDZSFwsxl6-15">
          <mxGeometry width="50" height="50" relative="1" as="geometry">
            <mxPoint x="473" y="182" as="sourcePoint" />
            <mxPoint x="384" y="210" as="targetPoint" />
          </mxGeometry>
        </mxCell>
        <mxCell id="kC-4KnUJyhWDZSFwsxl6-6" value="" style="group" vertex="1" connectable="0" parent="kC-4KnUJyhWDZSFwsxl6-1">
          <mxGeometry x="296" y="220" width="78" height="90" as="geometry" />
        </mxCell>
        <mxCell id="kC-4KnUJyhWDZSFwsxl6-7" value="" style="whiteSpace=wrap;html=1;aspect=fixed;" vertex="1" parent="kC-4KnUJyhWDZSFwsxl6-6">
          <mxGeometry width="78" height="78" as="geometry" />
        </mxCell>
        <mxCell id="kC-4KnUJyhWDZSFwsxl6-8" value="&lt;font style=&quot;font-size: 16px;&quot;&gt;55&lt;/font&gt;" style="text;html=1;align=center;verticalAlign=middle;resizable=0;points=[];autosize=1;strokeColor=none;fillColor=none;" vertex="1" parent="kC-4KnUJyhWDZSFwsxl6-6">
          <mxGeometry x="19.5" y="25" width="40" height="30" as="geometry" />
        </mxCell>
        <mxCell id="n5S4vLIJvNc1qUtHMUtN-0" value="" style="shape=cross;whiteSpace=wrap;html=1;rotation=45;fillColor=#f8cecc;strokeColor=#b85450;" vertex="1" parent="kC-4KnUJyhWDZSFwsxl6-6">
          <mxGeometry x="-1" width="80" height="80" as="geometry" />
        </mxCell>
        <mxCell id="kC-4KnUJyhWDZSFwsxl6-14" value="" style="group" vertex="1" connectable="0" parent="kC-4KnUJyhWDZSFwsxl6-1">
          <mxGeometry x="474" y="220" width="80" height="80" as="geometry" />
        </mxCell>
        <mxCell id="kC-4KnUJyhWDZSFwsxl6-15" value="" style="whiteSpace=wrap;html=1;aspect=fixed;" vertex="1" parent="kC-4KnUJyhWDZSFwsxl6-14">
          <mxGeometry width="80" height="80" as="geometry" />
        </mxCell>
        <mxCell id="kC-4KnUJyhWDZSFwsxl6-16" value="&lt;font style=&quot;font-size: 16px;&quot;&gt;1&lt;/font&gt;" style="text;html=1;align=center;verticalAlign=middle;resizable=0;points=[];autosize=1;strokeColor=none;fillColor=none;" vertex="1" parent="kC-4KnUJyhWDZSFwsxl6-14">
          <mxGeometry x="25" y="25" width="30" height="30" as="geometry" />
        </mxCell>
        <mxCell id="kC-4KnUJyhWDZSFwsxl6-17" value="" style="endArrow=classic;html=1;rounded=0;exitX=0.5;exitY=1;exitDx=0;exitDy=0;" edge="1" parent="kC-4KnUJyhWDZSFwsxl6-1" source="kC-4KnUJyhWDZSFwsxl6-15">
          <mxGeometry width="50" height="50" relative="1" as="geometry">
            <mxPoint x="514" y="332" as="sourcePoint" />
            <mxPoint x="514" y="342" as="targetPoint" />
          </mxGeometry>
        </mxCell>
        <mxCell id="kC-4KnUJyhWDZSFwsxl6-18" value="" style="group" vertex="1" connectable="0" parent="kC-4KnUJyhWDZSFwsxl6-1">
          <mxGeometry x="474" y="352" width="80" height="20" as="geometry" />
        </mxCell>
        <mxCell id="kC-4KnUJyhWDZSFwsxl6-19" value="" style="endArrow=none;html=1;rounded=0;" edge="1" parent="kC-4KnUJyhWDZSFwsxl6-18">
          <mxGeometry width="50" height="50" relative="1" as="geometry">
            <mxPoint as="sourcePoint" />
            <mxPoint x="80" as="targetPoint" />
          </mxGeometry>
        </mxCell>
        <mxCell id="kC-4KnUJyhWDZSFwsxl6-20" value="" style="endArrow=none;html=1;rounded=0;" edge="1" parent="kC-4KnUJyhWDZSFwsxl6-18">
          <mxGeometry width="50" height="50" relative="1" as="geometry">
            <mxPoint x="10" y="10" as="sourcePoint" />
            <mxPoint x="70" y="10" as="targetPoint" />
          </mxGeometry>
        </mxCell>
        <mxCell id="kC-4KnUJyhWDZSFwsxl6-21" value="" style="endArrow=none;html=1;rounded=0;" edge="1" parent="kC-4KnUJyhWDZSFwsxl6-18">
          <mxGeometry width="50" height="50" relative="1" as="geometry">
            <mxPoint x="20" y="20" as="sourcePoint" />
            <mxPoint x="60" y="20" as="targetPoint" />
          </mxGeometry>
        </mxCell>
        <mxCell id="kC-4KnUJyhWDZSFwsxl6-22" style="edgeStyle=orthogonalEdgeStyle;rounded=0;orthogonalLoop=1;jettySize=auto;html=1;" edge="1" parent="kC-4KnUJyhWDZSFwsxl6-1" source="kC-4KnUJyhWDZSFwsxl6-7" target="kC-4KnUJyhWDZSFwsxl6-15">
          <mxGeometry relative="1" as="geometry" />
        </mxCell>
        <mxCell id="kC-4KnUJyhWDZSFwsxl6-23" value="&lt;span style=&quot;font-size: 16px;&quot;&gt;AUX&lt;/span&gt;" style="text;html=1;align=center;verticalAlign=middle;resizable=0;points=[];autosize=1;strokeColor=none;fillColor=none;" vertex="1" parent="kC-4KnUJyhWDZSFwsxl6-1">
          <mxGeometry x="170" y="130" width="60" height="30" as="geometry" />
        </mxCell>
        <mxCell id="kC-4KnUJyhWDZSFwsxl6-24" value="" style="endArrow=classic;html=1;rounded=0;exitX=0.517;exitY=1.033;exitDx=0;exitDy=0;exitPerimeter=0;entryX=0.25;entryY=0;entryDx=0;entryDy=0;" edge="1" parent="kC-4KnUJyhWDZSFwsxl6-1" source="kC-4KnUJyhWDZSFwsxl6-23" target="kC-4KnUJyhWDZSFwsxl6-7">
          <mxGeometry width="50" height="50" relative="1" as="geometry">
            <mxPoint x="400" y="300" as="sourcePoint" />
            <mxPoint x="450" y="250" as="targetPoint" />
          </mxGeometry>
        </mxCell>
      </root>
    </mxGraphModel>
  </diagram>
  <diagram name="14" id="mbefvkGeQxWVSIaCsUlm">
    <mxGraphModel grid="1" page="1" gridSize="10" guides="1" tooltips="1" connect="1" arrows="1" fold="1" pageScale="1" pageWidth="850" pageHeight="1100" math="0" shadow="0">
      <root>
        <mxCell id="TAAy1ji1U8G7ct87Fk04-0" />
        <mxCell id="TAAy1ji1U8G7ct87Fk04-1" parent="TAAy1ji1U8G7ct87Fk04-0" />
        <mxCell id="TAAy1ji1U8G7ct87Fk04-2" value="&lt;span style=&quot;font-size: 16px;&quot;&gt;Início&lt;/span&gt;" style="text;html=1;align=center;verticalAlign=middle;resizable=0;points=[];autosize=1;strokeColor=none;fillColor=none;" vertex="1" parent="TAAy1ji1U8G7ct87Fk04-1">
          <mxGeometry x="308" y="80" width="60" height="30" as="geometry" />
        </mxCell>
        <mxCell id="TAAy1ji1U8G7ct87Fk04-3" value="" style="endArrow=classic;html=1;rounded=0;entryX=0.138;entryY=0.025;entryDx=0;entryDy=0;entryPerimeter=0;" edge="1" parent="TAAy1ji1U8G7ct87Fk04-1" source="TAAy1ji1U8G7ct87Fk04-2" target="TAAy1ji1U8G7ct87Fk04-11">
          <mxGeometry width="50" height="50" relative="1" as="geometry">
            <mxPoint x="368" y="182" as="sourcePoint" />
            <mxPoint x="338" y="162" as="targetPoint" />
          </mxGeometry>
        </mxCell>
        <mxCell id="TAAy1ji1U8G7ct87Fk04-4" value="&lt;span style=&quot;font-size: 16px;&quot;&gt;Fim&lt;/span&gt;" style="text;html=1;align=center;verticalAlign=middle;resizable=0;points=[];autosize=1;strokeColor=none;fillColor=none;" vertex="1" parent="TAAy1ji1U8G7ct87Fk04-1">
          <mxGeometry x="489" y="130" width="50" height="30" as="geometry" />
        </mxCell>
        <mxCell id="TAAy1ji1U8G7ct87Fk04-5" value="" style="endArrow=classic;html=1;rounded=0;entryX=0.5;entryY=0;entryDx=0;entryDy=0;" edge="1" parent="TAAy1ji1U8G7ct87Fk04-1" source="TAAy1ji1U8G7ct87Fk04-4" target="TAAy1ji1U8G7ct87Fk04-11">
          <mxGeometry width="50" height="50" relative="1" as="geometry">
            <mxPoint x="473" y="182" as="sourcePoint" />
            <mxPoint x="384" y="210" as="targetPoint" />
          </mxGeometry>
        </mxCell>
        <mxCell id="TAAy1ji1U8G7ct87Fk04-10" value="" style="group" vertex="1" connectable="0" parent="TAAy1ji1U8G7ct87Fk04-1">
          <mxGeometry x="474" y="220" width="80" height="80" as="geometry" />
        </mxCell>
        <mxCell id="TAAy1ji1U8G7ct87Fk04-11" value="" style="whiteSpace=wrap;html=1;aspect=fixed;" vertex="1" parent="TAAy1ji1U8G7ct87Fk04-10">
          <mxGeometry width="80" height="80" as="geometry" />
        </mxCell>
        <mxCell id="TAAy1ji1U8G7ct87Fk04-12" value="&lt;font style=&quot;font-size: 16px;&quot;&gt;1&lt;/font&gt;" style="text;html=1;align=center;verticalAlign=middle;resizable=0;points=[];autosize=1;strokeColor=none;fillColor=none;" vertex="1" parent="TAAy1ji1U8G7ct87Fk04-10">
          <mxGeometry x="25" y="25" width="30" height="30" as="geometry" />
        </mxCell>
        <mxCell id="TAAy1ji1U8G7ct87Fk04-13" value="" style="endArrow=classic;html=1;rounded=0;exitX=0.5;exitY=1;exitDx=0;exitDy=0;" edge="1" parent="TAAy1ji1U8G7ct87Fk04-1" source="TAAy1ji1U8G7ct87Fk04-11">
          <mxGeometry width="50" height="50" relative="1" as="geometry">
            <mxPoint x="514" y="332" as="sourcePoint" />
            <mxPoint x="514" y="342" as="targetPoint" />
          </mxGeometry>
        </mxCell>
        <mxCell id="TAAy1ji1U8G7ct87Fk04-14" value="" style="group" vertex="1" connectable="0" parent="TAAy1ji1U8G7ct87Fk04-1">
          <mxGeometry x="474" y="352" width="80" height="20" as="geometry" />
        </mxCell>
        <mxCell id="TAAy1ji1U8G7ct87Fk04-15" value="" style="endArrow=none;html=1;rounded=0;" edge="1" parent="TAAy1ji1U8G7ct87Fk04-14">
          <mxGeometry width="50" height="50" relative="1" as="geometry">
            <mxPoint as="sourcePoint" />
            <mxPoint x="80" as="targetPoint" />
          </mxGeometry>
        </mxCell>
        <mxCell id="TAAy1ji1U8G7ct87Fk04-16" value="" style="endArrow=none;html=1;rounded=0;" edge="1" parent="TAAy1ji1U8G7ct87Fk04-14">
          <mxGeometry width="50" height="50" relative="1" as="geometry">
            <mxPoint x="10" y="10" as="sourcePoint" />
            <mxPoint x="70" y="10" as="targetPoint" />
          </mxGeometry>
        </mxCell>
        <mxCell id="TAAy1ji1U8G7ct87Fk04-17" value="" style="endArrow=none;html=1;rounded=0;" edge="1" parent="TAAy1ji1U8G7ct87Fk04-14">
          <mxGeometry width="50" height="50" relative="1" as="geometry">
            <mxPoint x="20" y="20" as="sourcePoint" />
            <mxPoint x="60" y="20" as="targetPoint" />
          </mxGeometry>
        </mxCell>
        <mxCell id="TAAy1ji1U8G7ct87Fk04-19" value="&lt;span style=&quot;font-size: 16px;&quot;&gt;AUX&lt;/span&gt;" style="text;html=1;align=center;verticalAlign=middle;resizable=0;points=[];autosize=1;strokeColor=none;fillColor=none;" vertex="1" parent="TAAy1ji1U8G7ct87Fk04-1">
          <mxGeometry x="308" y="180" width="60" height="30" as="geometry" />
        </mxCell>
        <mxCell id="TAAy1ji1U8G7ct87Fk04-20" value="" style="endArrow=classic;html=1;rounded=0;exitX=0.517;exitY=1.033;exitDx=0;exitDy=0;exitPerimeter=0;entryX=0;entryY=0.5;entryDx=0;entryDy=0;" edge="1" parent="TAAy1ji1U8G7ct87Fk04-1" source="TAAy1ji1U8G7ct87Fk04-19" target="TAAy1ji1U8G7ct87Fk04-11">
          <mxGeometry width="50" height="50" relative="1" as="geometry">
            <mxPoint x="400" y="300" as="sourcePoint" />
            <mxPoint x="315.5" y="220" as="targetPoint" />
          </mxGeometry>
        </mxCell>
      </root>
    </mxGraphModel>
  </diagram>
  <diagram name="15" id="pAwYlprBkdSoQTxGb8Rg">
    <mxGraphModel grid="1" page="1" gridSize="10" guides="1" tooltips="1" connect="1" arrows="1" fold="1" pageScale="1" pageWidth="850" pageHeight="1100" math="0" shadow="0">
      <root>
        <mxCell id="SgAEgZqVVIRoHc39yrgt-0" />
        <mxCell id="SgAEgZqVVIRoHc39yrgt-1" parent="SgAEgZqVVIRoHc39yrgt-0" />
        <mxCell id="SgAEgZqVVIRoHc39yrgt-2" value="&lt;span style=&quot;font-size: 16px;&quot;&gt;Início&lt;/span&gt;" style="text;html=1;align=center;verticalAlign=middle;resizable=0;points=[];autosize=1;strokeColor=none;fillColor=none;" vertex="1" parent="SgAEgZqVVIRoHc39yrgt-1">
          <mxGeometry x="308" y="80" width="60" height="30" as="geometry" />
        </mxCell>
        <mxCell id="SgAEgZqVVIRoHc39yrgt-3" value="" style="endArrow=classic;html=1;rounded=0;" edge="1" parent="SgAEgZqVVIRoHc39yrgt-1" source="SgAEgZqVVIRoHc39yrgt-2">
          <mxGeometry width="50" height="50" relative="1" as="geometry">
            <mxPoint x="368" y="182" as="sourcePoint" />
            <mxPoint x="480" y="350" as="targetPoint" />
          </mxGeometry>
        </mxCell>
        <mxCell id="SgAEgZqVVIRoHc39yrgt-4" value="&lt;span style=&quot;font-size: 16px;&quot;&gt;Fim&lt;/span&gt;" style="text;html=1;align=center;verticalAlign=middle;resizable=0;points=[];autosize=1;strokeColor=none;fillColor=none;" vertex="1" parent="SgAEgZqVVIRoHc39yrgt-1">
          <mxGeometry x="489" y="130" width="50" height="30" as="geometry" />
        </mxCell>
        <mxCell id="SgAEgZqVVIRoHc39yrgt-5" value="" style="endArrow=classic;html=1;rounded=0;entryX=0.5;entryY=0;entryDx=0;entryDy=0;" edge="1" parent="SgAEgZqVVIRoHc39yrgt-1" source="SgAEgZqVVIRoHc39yrgt-4" target="SgAEgZqVVIRoHc39yrgt-7">
          <mxGeometry width="50" height="50" relative="1" as="geometry">
            <mxPoint x="473" y="182" as="sourcePoint" />
            <mxPoint x="384" y="210" as="targetPoint" />
          </mxGeometry>
        </mxCell>
        <mxCell id="SgAEgZqVVIRoHc39yrgt-6" value="" style="group" vertex="1" connectable="0" parent="SgAEgZqVVIRoHc39yrgt-1">
          <mxGeometry x="474" y="220" width="80" height="80" as="geometry" />
        </mxCell>
        <mxCell id="SgAEgZqVVIRoHc39yrgt-7" value="" style="whiteSpace=wrap;html=1;aspect=fixed;" vertex="1" parent="SgAEgZqVVIRoHc39yrgt-6">
          <mxGeometry width="80" height="80" as="geometry" />
        </mxCell>
        <mxCell id="SgAEgZqVVIRoHc39yrgt-8" value="&lt;font style=&quot;font-size: 16px;&quot;&gt;1&lt;/font&gt;" style="text;html=1;align=center;verticalAlign=middle;resizable=0;points=[];autosize=1;strokeColor=none;fillColor=none;" vertex="1" parent="SgAEgZqVVIRoHc39yrgt-6">
          <mxGeometry x="25" y="25" width="30" height="30" as="geometry" />
        </mxCell>
        <mxCell id="SgAEgZqVVIRoHc39yrgt-9" value="" style="endArrow=classic;html=1;rounded=0;exitX=0.5;exitY=1;exitDx=0;exitDy=0;" edge="1" parent="SgAEgZqVVIRoHc39yrgt-1" source="SgAEgZqVVIRoHc39yrgt-7">
          <mxGeometry width="50" height="50" relative="1" as="geometry">
            <mxPoint x="514" y="332" as="sourcePoint" />
            <mxPoint x="514" y="342" as="targetPoint" />
          </mxGeometry>
        </mxCell>
        <mxCell id="SgAEgZqVVIRoHc39yrgt-10" value="" style="group" vertex="1" connectable="0" parent="SgAEgZqVVIRoHc39yrgt-1">
          <mxGeometry x="474" y="352" width="80" height="20" as="geometry" />
        </mxCell>
        <mxCell id="SgAEgZqVVIRoHc39yrgt-11" value="" style="endArrow=none;html=1;rounded=0;" edge="1" parent="SgAEgZqVVIRoHc39yrgt-10">
          <mxGeometry width="50" height="50" relative="1" as="geometry">
            <mxPoint as="sourcePoint" />
            <mxPoint x="80" as="targetPoint" />
          </mxGeometry>
        </mxCell>
        <mxCell id="SgAEgZqVVIRoHc39yrgt-12" value="" style="endArrow=none;html=1;rounded=0;" edge="1" parent="SgAEgZqVVIRoHc39yrgt-10">
          <mxGeometry width="50" height="50" relative="1" as="geometry">
            <mxPoint x="10" y="10" as="sourcePoint" />
            <mxPoint x="70" y="10" as="targetPoint" />
          </mxGeometry>
        </mxCell>
        <mxCell id="SgAEgZqVVIRoHc39yrgt-13" value="" style="endArrow=none;html=1;rounded=0;" edge="1" parent="SgAEgZqVVIRoHc39yrgt-10">
          <mxGeometry width="50" height="50" relative="1" as="geometry">
            <mxPoint x="20" y="20" as="sourcePoint" />
            <mxPoint x="60" y="20" as="targetPoint" />
          </mxGeometry>
        </mxCell>
        <mxCell id="SgAEgZqVVIRoHc39yrgt-14" value="&lt;span style=&quot;font-size: 16px;&quot;&gt;AUX&lt;/span&gt;" style="text;html=1;align=center;verticalAlign=middle;resizable=0;points=[];autosize=1;strokeColor=none;fillColor=none;" vertex="1" parent="SgAEgZqVVIRoHc39yrgt-1">
          <mxGeometry x="308" y="180" width="60" height="30" as="geometry" />
        </mxCell>
        <mxCell id="SgAEgZqVVIRoHc39yrgt-15" value="" style="endArrow=classic;html=1;rounded=0;exitX=0.517;exitY=1.033;exitDx=0;exitDy=0;exitPerimeter=0;entryX=0;entryY=0.5;entryDx=0;entryDy=0;" edge="1" parent="SgAEgZqVVIRoHc39yrgt-1" source="SgAEgZqVVIRoHc39yrgt-14" target="SgAEgZqVVIRoHc39yrgt-7">
          <mxGeometry width="50" height="50" relative="1" as="geometry">
            <mxPoint x="400" y="300" as="sourcePoint" />
            <mxPoint x="315.5" y="220" as="targetPoint" />
          </mxGeometry>
        </mxCell>
      </root>
    </mxGraphModel>
  </diagram>
  <diagram name="16" id="2yecHWmhe8WU0a9izoOH">
    <mxGraphModel grid="1" page="1" gridSize="10" guides="1" tooltips="1" connect="1" arrows="1" fold="1" pageScale="1" pageWidth="850" pageHeight="1100" math="0" shadow="0">
      <root>
        <mxCell id="V5QeFEkRp9SQGF9kyyap-0" />
        <mxCell id="V5QeFEkRp9SQGF9kyyap-1" parent="V5QeFEkRp9SQGF9kyyap-0" />
        <mxCell id="V5QeFEkRp9SQGF9kyyap-2" value="&lt;span style=&quot;font-size: 16px;&quot;&gt;Início&lt;/span&gt;" style="text;html=1;align=center;verticalAlign=middle;resizable=0;points=[];autosize=1;strokeColor=none;fillColor=none;" vertex="1" parent="V5QeFEkRp9SQGF9kyyap-1">
          <mxGeometry x="308" y="80" width="60" height="30" as="geometry" />
        </mxCell>
        <mxCell id="V5QeFEkRp9SQGF9kyyap-3" value="" style="endArrow=classic;html=1;rounded=0;" edge="1" parent="V5QeFEkRp9SQGF9kyyap-1" source="V5QeFEkRp9SQGF9kyyap-2">
          <mxGeometry width="50" height="50" relative="1" as="geometry">
            <mxPoint x="368" y="182" as="sourcePoint" />
            <mxPoint x="480" y="350" as="targetPoint" />
          </mxGeometry>
        </mxCell>
        <mxCell id="V5QeFEkRp9SQGF9kyyap-4" value="&lt;span style=&quot;font-size: 16px;&quot;&gt;Fim&lt;/span&gt;" style="text;html=1;align=center;verticalAlign=middle;resizable=0;points=[];autosize=1;strokeColor=none;fillColor=none;" vertex="1" parent="V5QeFEkRp9SQGF9kyyap-1">
          <mxGeometry x="660" y="180" width="50" height="30" as="geometry" />
        </mxCell>
        <mxCell id="V5QeFEkRp9SQGF9kyyap-5" value="" style="endArrow=classic;html=1;rounded=0;" edge="1" parent="V5QeFEkRp9SQGF9kyyap-1" source="V5QeFEkRp9SQGF9kyyap-4">
          <mxGeometry width="50" height="50" relative="1" as="geometry">
            <mxPoint x="473" y="182" as="sourcePoint" />
            <mxPoint x="550" y="350" as="targetPoint" />
          </mxGeometry>
        </mxCell>
        <mxCell id="V5QeFEkRp9SQGF9kyyap-6" value="" style="group" vertex="1" connectable="0" parent="V5QeFEkRp9SQGF9kyyap-1">
          <mxGeometry x="474" y="220" width="80" height="80" as="geometry" />
        </mxCell>
        <mxCell id="V5QeFEkRp9SQGF9kyyap-7" value="" style="whiteSpace=wrap;html=1;aspect=fixed;" vertex="1" parent="V5QeFEkRp9SQGF9kyyap-6">
          <mxGeometry width="80" height="80" as="geometry" />
        </mxCell>
        <mxCell id="V5QeFEkRp9SQGF9kyyap-8" value="&lt;font style=&quot;font-size: 16px;&quot;&gt;1&lt;/font&gt;" style="text;html=1;align=center;verticalAlign=middle;resizable=0;points=[];autosize=1;strokeColor=none;fillColor=none;" vertex="1" parent="V5QeFEkRp9SQGF9kyyap-6">
          <mxGeometry x="25" y="25" width="30" height="30" as="geometry" />
        </mxCell>
        <mxCell id="V5QeFEkRp9SQGF9kyyap-9" value="" style="endArrow=classic;html=1;rounded=0;exitX=0.5;exitY=1;exitDx=0;exitDy=0;" edge="1" parent="V5QeFEkRp9SQGF9kyyap-1" source="V5QeFEkRp9SQGF9kyyap-7">
          <mxGeometry width="50" height="50" relative="1" as="geometry">
            <mxPoint x="514" y="332" as="sourcePoint" />
            <mxPoint x="514" y="342" as="targetPoint" />
          </mxGeometry>
        </mxCell>
        <mxCell id="V5QeFEkRp9SQGF9kyyap-10" value="" style="group" vertex="1" connectable="0" parent="V5QeFEkRp9SQGF9kyyap-1">
          <mxGeometry x="474" y="352" width="80" height="20" as="geometry" />
        </mxCell>
        <mxCell id="V5QeFEkRp9SQGF9kyyap-11" value="" style="endArrow=none;html=1;rounded=0;" edge="1" parent="V5QeFEkRp9SQGF9kyyap-10">
          <mxGeometry width="50" height="50" relative="1" as="geometry">
            <mxPoint as="sourcePoint" />
            <mxPoint x="80" as="targetPoint" />
          </mxGeometry>
        </mxCell>
        <mxCell id="V5QeFEkRp9SQGF9kyyap-12" value="" style="endArrow=none;html=1;rounded=0;" edge="1" parent="V5QeFEkRp9SQGF9kyyap-10">
          <mxGeometry width="50" height="50" relative="1" as="geometry">
            <mxPoint x="10" y="10" as="sourcePoint" />
            <mxPoint x="70" y="10" as="targetPoint" />
          </mxGeometry>
        </mxCell>
        <mxCell id="V5QeFEkRp9SQGF9kyyap-13" value="" style="endArrow=none;html=1;rounded=0;" edge="1" parent="V5QeFEkRp9SQGF9kyyap-10">
          <mxGeometry width="50" height="50" relative="1" as="geometry">
            <mxPoint x="20" y="20" as="sourcePoint" />
            <mxPoint x="60" y="20" as="targetPoint" />
          </mxGeometry>
        </mxCell>
        <mxCell id="V5QeFEkRp9SQGF9kyyap-14" value="&lt;span style=&quot;font-size: 16px;&quot;&gt;AUX&lt;/span&gt;" style="text;html=1;align=center;verticalAlign=middle;resizable=0;points=[];autosize=1;strokeColor=none;fillColor=none;" vertex="1" parent="V5QeFEkRp9SQGF9kyyap-1">
          <mxGeometry x="308" y="180" width="60" height="30" as="geometry" />
        </mxCell>
        <mxCell id="V5QeFEkRp9SQGF9kyyap-15" value="" style="endArrow=classic;html=1;rounded=0;exitX=0.517;exitY=1.033;exitDx=0;exitDy=0;exitPerimeter=0;entryX=0;entryY=0.5;entryDx=0;entryDy=0;" edge="1" parent="V5QeFEkRp9SQGF9kyyap-1" source="V5QeFEkRp9SQGF9kyyap-14" target="V5QeFEkRp9SQGF9kyyap-7">
          <mxGeometry width="50" height="50" relative="1" as="geometry">
            <mxPoint x="400" y="300" as="sourcePoint" />
            <mxPoint x="315.5" y="220" as="targetPoint" />
          </mxGeometry>
        </mxCell>
      </root>
    </mxGraphModel>
  </diagram>
  <diagram name="17" id="epZAL01xrieuSmmHc2cJ">
    <mxGraphModel grid="1" page="1" gridSize="10" guides="1" tooltips="1" connect="1" arrows="1" fold="1" pageScale="1" pageWidth="850" pageHeight="1100" math="0" shadow="0">
      <root>
        <mxCell id="8Iv1MRpI7EEXcL4dxUve-0" />
        <mxCell id="8Iv1MRpI7EEXcL4dxUve-1" parent="8Iv1MRpI7EEXcL4dxUve-0" />
        <mxCell id="8Iv1MRpI7EEXcL4dxUve-2" value="&lt;span style=&quot;font-size: 16px;&quot;&gt;Início&lt;/span&gt;" style="text;html=1;align=center;verticalAlign=middle;resizable=0;points=[];autosize=1;strokeColor=none;fillColor=none;" vertex="1" parent="8Iv1MRpI7EEXcL4dxUve-1">
          <mxGeometry x="308" y="80" width="60" height="30" as="geometry" />
        </mxCell>
        <mxCell id="8Iv1MRpI7EEXcL4dxUve-3" value="" style="endArrow=classic;html=1;rounded=0;" edge="1" parent="8Iv1MRpI7EEXcL4dxUve-1" source="8Iv1MRpI7EEXcL4dxUve-2">
          <mxGeometry width="50" height="50" relative="1" as="geometry">
            <mxPoint x="368" y="182" as="sourcePoint" />
            <mxPoint x="480" y="350" as="targetPoint" />
          </mxGeometry>
        </mxCell>
        <mxCell id="8Iv1MRpI7EEXcL4dxUve-4" value="&lt;span style=&quot;font-size: 16px;&quot;&gt;Fim&lt;/span&gt;" style="text;html=1;align=center;verticalAlign=middle;resizable=0;points=[];autosize=1;strokeColor=none;fillColor=none;" vertex="1" parent="8Iv1MRpI7EEXcL4dxUve-1">
          <mxGeometry x="660" y="180" width="50" height="30" as="geometry" />
        </mxCell>
        <mxCell id="8Iv1MRpI7EEXcL4dxUve-5" value="" style="endArrow=classic;html=1;rounded=0;" edge="1" parent="8Iv1MRpI7EEXcL4dxUve-1" source="8Iv1MRpI7EEXcL4dxUve-4">
          <mxGeometry width="50" height="50" relative="1" as="geometry">
            <mxPoint x="473" y="182" as="sourcePoint" />
            <mxPoint x="550" y="350" as="targetPoint" />
          </mxGeometry>
        </mxCell>
        <mxCell id="8Iv1MRpI7EEXcL4dxUve-6" value="" style="group" vertex="1" connectable="0" parent="8Iv1MRpI7EEXcL4dxUve-1">
          <mxGeometry x="474" y="220" width="80" height="80" as="geometry" />
        </mxCell>
        <mxCell id="8Iv1MRpI7EEXcL4dxUve-7" value="" style="whiteSpace=wrap;html=1;aspect=fixed;" vertex="1" parent="8Iv1MRpI7EEXcL4dxUve-6">
          <mxGeometry width="80" height="80" as="geometry" />
        </mxCell>
        <mxCell id="8Iv1MRpI7EEXcL4dxUve-8" value="&lt;font style=&quot;font-size: 16px;&quot;&gt;1&lt;/font&gt;" style="text;html=1;align=center;verticalAlign=middle;resizable=0;points=[];autosize=1;strokeColor=none;fillColor=none;" vertex="1" parent="8Iv1MRpI7EEXcL4dxUve-6">
          <mxGeometry x="25" y="25" width="30" height="30" as="geometry" />
        </mxCell>
        <mxCell id="VMoL1fiUrMoxEYN9lOaA-0" value="" style="shape=cross;whiteSpace=wrap;html=1;rotation=45;fillColor=#f8cecc;strokeColor=#b85450;" vertex="1" parent="8Iv1MRpI7EEXcL4dxUve-6">
          <mxGeometry width="80" height="80" as="geometry" />
        </mxCell>
        <mxCell id="8Iv1MRpI7EEXcL4dxUve-9" value="" style="endArrow=classic;html=1;rounded=0;exitX=0.5;exitY=1;exitDx=0;exitDy=0;" edge="1" parent="8Iv1MRpI7EEXcL4dxUve-1" source="8Iv1MRpI7EEXcL4dxUve-7">
          <mxGeometry width="50" height="50" relative="1" as="geometry">
            <mxPoint x="514" y="332" as="sourcePoint" />
            <mxPoint x="514" y="342" as="targetPoint" />
          </mxGeometry>
        </mxCell>
        <mxCell id="8Iv1MRpI7EEXcL4dxUve-10" value="" style="group" vertex="1" connectable="0" parent="8Iv1MRpI7EEXcL4dxUve-1">
          <mxGeometry x="474" y="352" width="80" height="20" as="geometry" />
        </mxCell>
        <mxCell id="8Iv1MRpI7EEXcL4dxUve-11" value="" style="endArrow=none;html=1;rounded=0;" edge="1" parent="8Iv1MRpI7EEXcL4dxUve-10">
          <mxGeometry width="50" height="50" relative="1" as="geometry">
            <mxPoint as="sourcePoint" />
            <mxPoint x="80" as="targetPoint" />
          </mxGeometry>
        </mxCell>
        <mxCell id="8Iv1MRpI7EEXcL4dxUve-12" value="" style="endArrow=none;html=1;rounded=0;" edge="1" parent="8Iv1MRpI7EEXcL4dxUve-10">
          <mxGeometry width="50" height="50" relative="1" as="geometry">
            <mxPoint x="10" y="10" as="sourcePoint" />
            <mxPoint x="70" y="10" as="targetPoint" />
          </mxGeometry>
        </mxCell>
        <mxCell id="8Iv1MRpI7EEXcL4dxUve-13" value="" style="endArrow=none;html=1;rounded=0;" edge="1" parent="8Iv1MRpI7EEXcL4dxUve-10">
          <mxGeometry width="50" height="50" relative="1" as="geometry">
            <mxPoint x="20" y="20" as="sourcePoint" />
            <mxPoint x="60" y="20" as="targetPoint" />
          </mxGeometry>
        </mxCell>
        <mxCell id="8Iv1MRpI7EEXcL4dxUve-14" value="&lt;span style=&quot;font-size: 16px;&quot;&gt;AUX&lt;/span&gt;" style="text;html=1;align=center;verticalAlign=middle;resizable=0;points=[];autosize=1;strokeColor=none;fillColor=none;" vertex="1" parent="8Iv1MRpI7EEXcL4dxUve-1">
          <mxGeometry x="308" y="180" width="60" height="30" as="geometry" />
        </mxCell>
        <mxCell id="8Iv1MRpI7EEXcL4dxUve-15" value="" style="endArrow=classic;html=1;rounded=0;exitX=0.517;exitY=1.033;exitDx=0;exitDy=0;exitPerimeter=0;entryX=0;entryY=0.5;entryDx=0;entryDy=0;" edge="1" parent="8Iv1MRpI7EEXcL4dxUve-1" source="8Iv1MRpI7EEXcL4dxUve-14" target="8Iv1MRpI7EEXcL4dxUve-7">
          <mxGeometry width="50" height="50" relative="1" as="geometry">
            <mxPoint x="400" y="300" as="sourcePoint" />
            <mxPoint x="315.5" y="220" as="targetPoint" />
          </mxGeometry>
        </mxCell>
      </root>
    </mxGraphModel>
  </diagram>
  <diagram name="Fim" id="2jq_uk1gZTTBIW_wOQS8">
    <mxGraphModel dx="918" dy="526" grid="1" gridSize="10" guides="1" tooltips="1" connect="1" arrows="1" fold="1" page="1" pageScale="1" pageWidth="850" pageHeight="1100" math="0" shadow="0">
      <root>
        <mxCell id="PT_iU_6mj7qOTfPAoJ2n-0" />
        <mxCell id="PT_iU_6mj7qOTfPAoJ2n-1" parent="PT_iU_6mj7qOTfPAoJ2n-0" />
        <mxCell id="PT_iU_6mj7qOTfPAoJ2n-2" value="&lt;span style=&quot;font-size: 16px;&quot;&gt;Início&lt;/span&gt;" style="text;html=1;align=center;verticalAlign=middle;resizable=0;points=[];autosize=1;strokeColor=none;fillColor=none;" vertex="1" parent="PT_iU_6mj7qOTfPAoJ2n-1">
          <mxGeometry x="308" y="80" width="60" height="30" as="geometry" />
        </mxCell>
        <mxCell id="PT_iU_6mj7qOTfPAoJ2n-3" value="" style="endArrow=classic;html=1;rounded=0;" edge="1" parent="PT_iU_6mj7qOTfPAoJ2n-1" source="PT_iU_6mj7qOTfPAoJ2n-2">
          <mxGeometry width="50" height="50" relative="1" as="geometry">
            <mxPoint x="368" y="182" as="sourcePoint" />
            <mxPoint x="480" y="350" as="targetPoint" />
          </mxGeometry>
        </mxCell>
        <mxCell id="PT_iU_6mj7qOTfPAoJ2n-4" value="&lt;span style=&quot;font-size: 16px;&quot;&gt;Fim&lt;/span&gt;" style="text;html=1;align=center;verticalAlign=middle;resizable=0;points=[];autosize=1;strokeColor=none;fillColor=none;" vertex="1" parent="PT_iU_6mj7qOTfPAoJ2n-1">
          <mxGeometry x="660" y="180" width="50" height="30" as="geometry" />
        </mxCell>
        <mxCell id="PT_iU_6mj7qOTfPAoJ2n-5" value="" style="endArrow=classic;html=1;rounded=0;" edge="1" parent="PT_iU_6mj7qOTfPAoJ2n-1" source="PT_iU_6mj7qOTfPAoJ2n-4">
          <mxGeometry width="50" height="50" relative="1" as="geometry">
            <mxPoint x="473" y="182" as="sourcePoint" />
            <mxPoint x="550" y="350" as="targetPoint" />
          </mxGeometry>
        </mxCell>
        <mxCell id="PT_iU_6mj7qOTfPAoJ2n-11" value="" style="group" vertex="1" connectable="0" parent="PT_iU_6mj7qOTfPAoJ2n-1">
          <mxGeometry x="474" y="352" width="80" height="20" as="geometry" />
        </mxCell>
        <mxCell id="PT_iU_6mj7qOTfPAoJ2n-12" value="" style="endArrow=none;html=1;rounded=0;" edge="1" parent="PT_iU_6mj7qOTfPAoJ2n-11">
          <mxGeometry width="50" height="50" relative="1" as="geometry">
            <mxPoint as="sourcePoint" />
            <mxPoint x="80" as="targetPoint" />
          </mxGeometry>
        </mxCell>
        <mxCell id="PT_iU_6mj7qOTfPAoJ2n-13" value="" style="endArrow=none;html=1;rounded=0;" edge="1" parent="PT_iU_6mj7qOTfPAoJ2n-11">
          <mxGeometry width="50" height="50" relative="1" as="geometry">
            <mxPoint x="10" y="10" as="sourcePoint" />
            <mxPoint x="70" y="10" as="targetPoint" />
          </mxGeometry>
        </mxCell>
        <mxCell id="PT_iU_6mj7qOTfPAoJ2n-14" value="" style="endArrow=none;html=1;rounded=0;" edge="1" parent="PT_iU_6mj7qOTfPAoJ2n-11">
          <mxGeometry width="50" height="50" relative="1" as="geometry">
            <mxPoint x="20" y="20" as="sourcePoint" />
            <mxPoint x="60" y="20" as="targetPoint" />
          </mxGeometry>
        </mxCell>
      </root>
    </mxGraphModel>
  </diagram>
</mxfile>
